<?xml version="1.0" encoding="UTF-8"?>
<svg width="1798px" height="720px" viewBox="0 0 1798 720" version="1.1" xmlns="http://www.w3.org/2000/svg" xmlns:xlink="http://www.w3.org/1999/xlink">
    <title>jpress-logo</title>
    <g id="Page-1" stroke="none" stroke-width="1" fill="none" fill-rule="evenodd">
        <g id="Artboard" transform="translate(-277.000000, -230.000000)">
            <g id="jpress-logo" transform="translate(277.000000, 230.000000)">
                <path d="M360,0 C558.82251,0 720,161.17749 720,360 C720,558.82251 558.82251,720 360,720 C161.17749,720 0,558.82251 0,360 C0,161.17749 161.17749,0 360,0 Z M360,5.75342466 C164.355019,5.75342466 5.75342466,164.355019 5.75342466,360 C5.75342466,555.644981 164.355019,714.246575 360,714.246575 C555.644981,714.246575 714.246575,555.644981 714.246575,360 C714.246575,164.355019 555.644981,5.75342466 360,5.75342466 Z" id="Oval" fill="#313AB2" fill-rule="nonzero"></path>
                <g id="Group" transform="translate(40.000000, 41.000000)">
                    <path d="M319.5,0 C384.910766,0 445.730539,19.6563732 496.374678,53.3844762 L367.95698,53.3868895 L346.604113,184.800771 L492.906644,184.800771 L512.323873,64.7246389 C589.287445,123.064411 639,215.476711 639,319.5 C639,495.954978 495.954978,639 319.5,639 C143.045022,639 0,495.954978 0,319.5 C0,143.045022 143.045022,0 319.5,0 Z M471.447301,303.073265 L325.388187,303.073265 L307.988364,401.308568 L307.841447,402.120425 C303.255609,427.209886 295.751196,445.028688 286.082801,453.740511 L286.082801,453.740511 L285.770167,454.018377 L285.297304,454.427543 C277.37866,461.191705 267.577999,465.193129 255.52459,466.550107 L255.52459,466.550107 L254.81269,466.626908 L253.842842,466.721869 C251.568997,466.929979 249.218951,467.044082 246.789915,467.069356 L246.789915,467.069356 L245.744055,467.074764 L245.066462,467.072391 C229.999172,466.966426 219.330183,463.311242 213.343381,456.190604 L213.343381,456.190604 L213.08224,455.874141 L212.782612,455.469171 C210.221988,451.932209 208.600786,447.685808 207.877656,442.599821 L207.877656,442.599821 L207.798201,442.009243 L207.798795,442.024796 L207.798795,442.024796 L207.800207,442.044237 L207.804974,442.087978 C207.805252,442.099817 207.805807,442.113654 207.807474,442.135481 L207.807474,442.135481 L207.8109,442.174332 L207.878826,443.546404 C210.29328,489.229569 230.087308,574.561617 344.405268,573.278757 L344.405268,573.278757 L347.934043,573.212305 L348.769796,572.808473 L348.769796,572.808473 L349.602162,572.397304 L350.428319,571.975411 L351.656667,571.355387 C360.635406,566.779925 368.972847,561.575093 376.662467,555.761108 L376.662467,555.761108 L377.707035,554.964518 L378.786816,554.124871 L378.786816,554.124871 L379.854744,553.277887 L380.912511,552.424695 L381.987369,551.544798 C417.336321,522.346485 440.66728,477.142215 451.355306,417.178596 L451.355306,417.178596 L451.678508,415.338554 L471.447301,303.073265 Z" id="Combined-Shape" fill="#313AB2"></path>
                    <path d="M217.940349,366.316195 L211.071537,404.152589 L210.794897,405.93884 C210.348067,408.923182 209.972155,411.942834 209.663245,414.983085 L209.663245,414.983085 L209.60908,414.928847 C209.590312,415.080069 209.14213,418.734982 208.909165,424.846632 L208.909165,424.846632 L208.90853,424.925869 L208.90853,424.925869 L208.904087,425.005106 L208.820657,426.742639 C208.694197,429.641 208.630723,432.551425 208.630723,435.4695 L208.630723,435.4695 L208.636387,436.257623 C208.662804,438.083268 208.781475,439.816211 208.989566,441.466103 L208.989566,441.466103 L209.057095,442.852178 C211.46143,489.008574 231.546477,575.899878 349.068123,572.799839 L349.068123,572.799839 L348.097263,573.2658 C315.980913,588.565981 276.14832,596.290488 229.139829,596.290488 L229.139829,596.290488 L227.474987,596.287313 C172.662592,596.077713 130.463311,585.494332 102.019425,564.815103 L102.019425,564.815103 L101.121288,564.155394 C71.6295583,542.276259 56.6722365,509.637417 56.6722365,467.122003 L56.6722365,467.122003 L56.6766338,465.894684 C56.7645631,453.588691 58.1706768,440.302627 60.8497196,426.372901 L60.8497196,426.372901 L71.3932942,366.316195 L217.940349,366.316195 Z M619.287918,184.800771 L603.73988,303.073265 L471.447301,303.073265 L492.385065,184.800771 L619.287918,184.800771 Z" id="Fill-11" fill="#FECB3A"></path>
                </g>
                <path d="M915.843715,470.013274 C936.909694,470.013274 956.988205,462.448378 969.166974,449.620944 C979.370807,438.766962 983.320678,427.912979 983.320678,408.507375 L983.320678,277.930678 C983.320678,266.089971 986.612237,261.814159 998.132694,259.511799 C1005.37412,258.196165 1007.0199,256.880531 1007.0199,253.262537 C1007.0199,249.973451 1004.71581,248 1000.43679,248 L923.743457,248 C920.122742,248 917.818651,249.973451 917.818651,253.262537 C917.818651,257.20944 918.806119,257.867257 930.326576,259.840708 C944.151124,261.814159 947.771839,265.761062 947.771839,277.930678 L947.771839,413.441003 C947.771839,437.451327 935.922226,451.594395 915.51456,451.594395 C896.423516,451.594395 882.269812,436.464602 882.269812,416.730088 C882.269812,400.613569 891.486178,387.457227 908.273129,380.221239 C914.527092,377.261062 915.185404,376.603245 915.185404,374.300885 C915.185404,370.682891 908.602285,368.051622 900.044231,368.051622 C873.711758,368.051622 851,390.088496 851,415.414454 C851,446.00295 879.636565,470.013274 915.843715,470.013274 Z M1113.33727,467.382006 C1117.28714,467.382006 1119.59123,465.408555 1119.59123,462.448378 C1119.59123,458.172566 1118.2746,457.514749 1106.75415,455.870206 C1093.25875,453.567847 1089.63804,449.620944 1089.63804,437.451327 L1089.63804,364.762537 C1100.82934,369.367257 1113.00811,371.669617 1126.83266,371.669617 C1168.3063,371.669617 1197.60118,344.699115 1197.60118,306.874631 C1197.60118,286.811209 1189.04313,269.707965 1173.5728,259.182891 C1162.71065,251.617994 1147.89864,248 1128.14928,248 L1036.97309,248 C1032.69407,248 1030.38997,249.973451 1030.38997,253.262537 C1030.38997,256.880531 1032.03575,258.196165 1039.27718,259.511799 C1050.79764,262.143068 1054.0892,266.089971 1054.0892,277.930678 L1054.41836,437.451327 C1054.41836,449.292035 1051.1268,453.567847 1039.60634,455.870206 C1032.36491,457.514749 1030.71913,458.501475 1030.71913,462.119469 C1030.71913,465.408555 1033.02322,467.382006 1037.30225,467.382006 L1113.33727,467.382006 Z M1117.61629,352.264012 C1107.0833,352.264012 1097.86694,350.29056 1089.63804,346.672566 L1089.63804,291.087021 C1089.63804,272.339233 1098.19609,264.116519 1117.94545,264.116519 C1143.29045,264.116519 1160.73572,281.219764 1160.73572,305.887906 C1160.73572,332.858407 1142.9613,352.264012 1117.61629,352.264012 Z M1286.80243,467.382006 C1291.08146,467.382006 1293.38555,465.737463 1293.38555,462.777286 C1293.38555,459.817109 1291.41062,458.501475 1287.13159,457.514749 L1284.16919,457.185841 L1279.89016,456.199115 C1269.02801,454.225664 1266.39477,450.936578 1266.39477,440.082596 L1266.39477,388.772861 C1266.39477,369.367257 1268.04055,358.842183 1271.3321,352.264012 C1275.61113,343.712389 1283.18172,338.449853 1291.08146,338.449853 C1299.31036,338.449853 1304.90601,343.712389 1304.90601,350.948378 C1304.90601,355.882006 1302.60192,359.171091 1297.66458,361.144543 C1295.03133,362.460177 1294.04386,363.117994 1294.04386,364.762537 C1294.04386,368.70944 1299.63951,371.998525 1306.88094,371.998525 C1320.70549,371.998525 1331.89679,360.157817 1331.89679,345.685841 C1331.89679,328.911504 1318.4014,316.084071 1300.62698,316.084071 C1285.48581,316.084071 1274.29451,323.977876 1266.06561,340.423304 L1266.06561,335.818584 L1266.06561,335.818584 C1266.06561,327.924779 1266.39477,323.977876 1267.38223,320.030973 L1268.3697,317.399705 C1268.69886,316.741888 1268.69886,316.084071 1268.69886,315.426254 C1268.69886,313.123894 1266.72392,311.479351 1264.09067,311.479351 C1258.82418,311.479351 1245.9871,316.084071 1229.85846,324.306785 C1218.99631,329.89823 1215.3756,332.529499 1215.3756,336.147493 C1215.3756,338.778761 1217.02138,339.436578 1222.94619,340.094395 C1232.82086,340.752212 1234.7958,344.041298 1234.7958,357.19764 L1234.7958,440.082596 C1234.7958,450.936578 1232.16255,454.554572 1221.62956,457.185841 L1218.338,457.843658 C1214.38813,458.830383 1212.74235,460.146018 1212.74235,462.777286 C1212.74235,465.737463 1215.04644,467.382006 1219.65463,467.382006 L1286.80243,467.382006 Z M1421.09805,471 C1441.17656,471 1459.93844,465.079646 1474.09215,453.567847 C1483.30851,446.331858 1488.24585,439.753687 1488.24585,435.477876 C1488.24585,432.846608 1486.27092,430.544248 1483.63767,430.544248 C1481.33358,430.544248 1479.35864,431.859882 1475.40877,435.477876 C1462.90085,446.00295 1448.41799,451.265487 1432.28935,451.265487 C1397.39882,451.265487 1374.02875,425.610619 1374.02875,387.128319 C1374.02875,385.483776 1374.35791,384.168142 1374.35791,381.865782 L1478.37118,381.865782 C1483.96683,381.865782 1486.92923,379.563422 1486.92923,375.287611 C1486.92923,373.971976 1486.60007,372.656342 1485.94176,371.340708 L1483.30851,367.064897 C1482.97936,365.749263 1481.99189,363.775811 1480.67527,361.144543 C1467.83819,328.582596 1448.08883,314.110619 1415.83155,314.110619 C1372.05381,314.110619 1340.45485,346.672566 1340.45485,392.061947 C1340.45485,438.766962 1373.69959,471 1421.09805,471 Z M1437.885,364.762537 L1376.33284,364.762537 C1381.92849,342.396755 1396.41135,329.569322 1416.48986,329.569322 C1434.26428,329.569322 1450.06377,341.738938 1450.06377,355.553097 C1450.06377,361.80236 1446.1139,364.762537 1437.885,364.762537 Z M1555.39366,470.671091 C1589.62588,470.671091 1613.98341,449.292035 1613.98341,419.690265 C1613.98341,396.995575 1604.43789,385.483776 1570.53483,368.380531 C1544.86067,355.553097 1541.56911,352.921829 1541.56911,344.041298 C1541.56911,334.831858 1548.48139,328.253687 1558.68522,328.253687 C1567.57243,328.253687 1575.80133,333.187316 1584.35938,343.383481 L1591.27165,352.264012 C1593.24659,354.566372 1594.56321,355.553097 1596.20899,355.553097 C1598.18393,355.553097 1599.50055,353.579646 1599.50055,351.277286 C1599.50055,347.988201 1596.53815,340.423304 1592.58828,332.529499 C1585.676,318.715339 1580.73867,312.466077 1577.11795,312.466077 C1576.45964,312.466077 1575.80133,312.794985 1575.47217,313.123894 L1573.49724,314.439528 C1572.18061,315.097345 1570.53483,315.755162 1568.88905,315.755162 L1568.3651,315.75452 C1567.07355,315.750023 1565.30948,315.714049 1563.2934,315.426254 C1560.331,314.768437 1557.3686,314.768437 1554.07704,314.768437 C1530.37781,314.768437 1512.93255,330.227139 1512.93255,351.606195 C1512.93255,365.749263 1520.83229,376.603245 1536.96093,384.825959 L1549.79801,391.40413 C1578.10542,406.205015 1586.00516,414.09882 1586.00516,428.570796 C1586.00516,444.358407 1573.49724,456.199115 1556.71028,456.199115 C1540.58164,456.199115 1528.40288,445.016224 1528.40288,429.886431 C1528.40288,421.334808 1532.35275,415.085546 1540.9108,409.4941 C1543.54405,407.849558 1544.53151,406.533923 1544.53151,405.218289 C1544.53151,402.258112 1538.27755,399.297935 1531.36528,399.297935 C1514.90748,399.297935 1501.41209,413.112094 1501.41209,429.557522 C1501.41209,452.910029 1524.78216,470.671091 1555.39366,470.671091 Z M1685.41025,470.671091 C1719.64246,470.671091 1744,449.292035 1744,419.690265 C1744,396.995575 1734.45448,385.483776 1700.55142,368.380531 C1674.87726,355.553097 1671.5857,352.921829 1671.5857,344.041298 C1671.5857,334.831858 1678.49797,328.253687 1688.70181,328.253687 C1697.58902,328.253687 1705.81791,333.187316 1714.37597,343.383481 L1721.28824,352.264012 C1723.26318,354.566372 1724.5798,355.553097 1726.22558,355.553097 C1728.20052,355.553097 1729.51714,353.579646 1729.51714,351.277286 C1729.51714,347.988201 1726.55474,340.423304 1722.60487,332.529499 C1715.69259,318.715339 1710.75525,312.466077 1707.13454,312.466077 C1706.47623,312.466077 1705.81791,312.794985 1705.48876,313.123894 L1703.51382,314.439528 C1702.1972,315.097345 1700.55142,315.755162 1698.90564,315.755162 L1698.38169,315.75452 C1697.09014,315.750023 1695.32607,315.714049 1693.30999,315.426254 C1690.34759,314.768437 1687.38518,314.768437 1684.09362,314.768437 C1660.3944,314.768437 1642.94913,330.227139 1642.94913,351.606195 C1642.94913,365.749263 1650.84888,376.603245 1666.97752,384.825959 L1679.8146,391.40413 C1708.12201,406.205015 1716.02175,414.09882 1716.02175,428.570796 C1716.02175,444.358407 1703.51382,456.199115 1686.72687,456.199115 C1670.59823,456.199115 1658.41946,445.016224 1658.41946,429.886431 C1658.41946,421.334808 1662.36933,415.085546 1670.92739,409.4941 C1673.56063,407.849558 1674.5481,406.533923 1674.5481,405.218289 C1674.5481,402.258112 1668.29414,399.297935 1661.38187,399.297935 C1644.92407,399.297935 1631.42868,413.112094 1631.42868,429.557522 C1631.42868,452.910029 1654.79875,470.671091 1685.41025,470.671091 Z" id="JPress" fill="#23282D" fill-rule="nonzero"></path>
                <circle id="Oval" fill="#FECB3A" cx="1778.5" cy="451.5" r="19.5"></circle>
            </g>
        </g>
    </g>
</svg>