<svg xmlns="http://www.w3.org/2000/svg"><metadata><json><![CDATA[
{
	"fontFamily": "Spotlayer",
	"majorVersion": 1,
	"minorVersion": 0,
	"designer": "AMR JAMAL",
	"copyright": "TIELABS",
	"version": "Version 1.0",
	"fontId": "Spotlayer",
	"psName": "Spotlayer",
	"subFamily": "Regular",
	"fullName": "Spotlayer",
	"description": "Font generated by IcoMoon."
}
]]></json></metadata><defs><font id="Spotlayer" horiz-adv-x="1024"><font-face ascent="960" descent="-64" units-per-em="1024"/><glyph horiz-adv-x="512"/><glyph d="M996.352 514.56v0l-417.792 417.792q-27.648 27.648-66.56 27.648t-66.56-27.648l-417.792-417.792q-27.648-27.648-27.648-66.56t26.624-65.536 63.488-28.672h19.456v-307.2q0-30.72 14.848-55.808t39.936-39.936 55.808-14.848h162.816q13.312 0 22.016 8.704t8.704 20.992v241.664q0 20.48 14.848 35.328t35.328 14.848h96.256q20.48 0 35.328-14.848t14.848-35.328v-241.664q0-12.288 8.704-20.992t22.016-8.704h162.816q30.72 0 55.808 14.848t39.936 39.936 14.848 55.808v307.2h15.36q38.912 0 66.56 27.648t27.648 66.56-27.648 66.56v0zM954.368 423.424q-10.24-9.216-24.576-9.216h-45.056q-13.312 0-22.016-9.216t-8.704-21.504v-336.896q0-20.48-14.848-35.328t-35.328-14.848h-133.12v210.944q0 29.696-14.848 54.784t-40.448 39.936-55.296 14.848h-96.256q-29.696 0-55.296-14.848t-40.448-39.936-14.848-54.784v-210.944h-133.12q-20.48 0-35.328 14.848t-14.848 35.328v336.896q0 12.288-8.704 21.504t-22.016 9.216h-46.080q-12.288 0-23.040 9.728t-10.752 24.064 10.24 24.576v0l417.792 417.792q11.264 9.216 25.088 9.216t24.064-9.216l416.768-417.792h1.024q10.24-10.24 10.24-24.576t-10.24-24.576z" data-tags="tielabs_home" glyph-name="home" unicode=""/><glyph d="M914.432 960q43.008 0 74.24-29.184t35.328-71.168v-814.080q0-43.008-29.184-74.24t-71.168-35.328h-814.080q-43.008 0-74.24 29.184t-35.328 71.168v814.080q0 43.008 29.184 74.24t71.168 35.328h814.080zM914.432 896.512h-804.864q-16.384 0-29.696-11.264t-15.36-28.672v-811.008q0-17.408 11.264-30.208t27.648-14.848l6.144-1.024h804.864q16.384 0 29.696 11.264t15.36 28.672l1.024 6.144v804.864q0 16.384-11.264 29.696t-28.672 15.36z" data-tags="tielabs_sections" glyph-name="sections" unicode=""/><glyph d="M0 864.768q0 37.888 23.552 63.488 20.48 24.576 53.248 30.72t61.44-8.192l6.144-4.096 702.464-414.72q29.696-17.408 40.96-48.128t2.56-61.44-35.328-50.176l-710.656-420.864q-29.696-17.408-62.464-12.288t-55.808 28.672-26.112 57.344v839.68zM111.616 891.392q-14.336 9.216-29.184 2.56t-17.92-24.064v-836.608q0-16.384 13.824-25.6t29.184-4.096l4.096 3.072 703.488 414.72q13.312 8.192 14.848 24.576t-10.752 26.624l-4.096 4.096z" data-tags="tielabs_videos" glyph-name="videos" horiz-adv-x="896" unicode=""/><glyph d="M624.64 931.328h-496.64q-50.176-4.096-83.456-39.936t-33.28-86.016v-862.208l369.664 216.064 368.64-216.064v871.424q-4.096 50.176-39.936 83.456t-84.992 33.28zM131.072 873.984l7.168 1.024h486.4q26.624 0 46.592-18.432t22.016-45.056v-769.024l-312.32 182.272-312.32-182.272v762.88q0 27.648 17.92 47.104t44.544 21.504z" data-tags="tielabs_favourites" glyph-name="favourites" horiz-adv-x="797" unicode=""/><glyph d="M387.072 915.968q104.448 24.576 211.968 0 16.384-3.072 27.648-15.36t13.312-29.696l1.024-7.168-1.024-66.56 16.384-7.168 34.816-18.432 16.384-11.264 13.312-10.24 58.368 33.792q13.312 7.168 28.16 7.168t27.136-8.192l11.264-9.216q72.704-78.848 105.472-183.296 5.12-15.36 0-31.232t-18.432-27.136l-6.144-4.096-58.368-32.768 2.048-17.408q2.048-26.624 1.024-39.936l-1.024-19.456-2.048-16.384 58.368-33.792q13.312-8.192 20.48-20.992t6.144-27.136v-7.168l-2.048-7.168q-32.768-104.448-105.472-183.296-11.264-12.288-28.16-15.872t-32.256 2.56l-6.144 3.072-58.368 33.792-13.312-10.24q-22.528-14.336-33.792-20.48l-17.408-9.216-16.384-7.168 1.024-66.56q0-15.36-7.68-27.648t-20.992-19.456l-6.144-3.072-7.168-2.048q-105.472-24.576-211.968 0-16.384 3.072-27.648 15.36t-13.312 29.696l-1.024 7.168v66.56l-15.36 7.168q-19.456 10.24-34.816 19.456l-16.384 10.24-14.336 10.24-57.344-33.792q-13.312-7.168-28.16-7.168t-27.136 8.192l-6.144 4.096-5.12 5.12q-74.752 81.92-105.472 183.296-5.12 16.384-0.512 31.744t17.92 26.624l64.512 37.888-1.024 16.384q-2.048 26.624-1.024 39.936l2.048 36.864-57.344 32.768q-13.312 7.168-20.48 20.48t-7.168 27.648l1.024 7.168 2.048 7.168q30.72 101.376 105.472 183.296 11.264 12.288 27.648 15.872t31.744-2.56l7.168-3.072 57.344-33.792 14.336 10.24q18.432 12.288 33.792 20.48l17.408 9.216 15.36 7.168v66.56q0 15.36 7.68 27.648t20.992 19.456l6.144 3.072zM564.224 857.6q-71.68 12.288-143.36 0l-11.264-2.048v-103.424l-21.504-7.168q-48.128-17.408-87.040-47.104l-29.696-25.6-89.088 52.224-8.192-9.216q-38.912-46.080-64.512-105.472l-7.168-18.432-4.096-12.288 89.088-51.2-4.096-22.528q-9.216-47.104-3.072-96.256l7.168-40.96-89.088-51.2 4.096-12.288q22.528-60.416 58.368-107.52l13.312-16.384 8.192-9.216 89.088 52.224 17.408-15.36q36.864-32.768 83.968-51.2l15.36-6.144 21.504-7.168v-103.424l12.288-2.048q60.416-11.264 122.88-3.072l31.744 5.12v103.424l21.504 7.168q49.152 18.432 87.040 47.104l29.696 25.6 89.088-52.224 8.192 9.216q38.912 46.080 64.512 105.472l7.168 18.432 4.096 12.288-89.088 51.2 4.096 22.528q7.168 47.104 3.072 96.256l-7.168 40.96 89.088 51.2-4.096 12.288q-21.504 58.368-58.368 107.52l-13.312 16.384-8.192 9.216-89.088-52.224-17.408 15.36q-36.864 32.768-83.968 51.2l-15.36 6.144-21.504 7.168v103.424zM492.544 624.128q48.128 0 88.576-23.552t64.512-64 24.064-88.576-24.064-88.576-64.512-64-88.576-23.552-88.576 23.552-64 64-23.552 88.576 23.552 88.576 64 64 88.576 23.552zM492.544 560.64q-30.72 0-56.32-15.36t-40.96-40.96-15.36-56.32 15.36-56.32 40.96-40.96 56.32-15.36 56.832 14.848 40.96 40.96 14.848 56.832-14.848 56.832-40.96 40.96-56.832 14.848z" data-tags="tielabs_settings" glyph-name="settings" horiz-adv-x="961" unicode=""/><glyph d="M512 278.016q34.816 0 60.416-25.6t25.6-60.416-25.6-60.416-60.416-25.6-60.416 25.6-25.6 60.416 25.6 60.416 60.416 25.6zM512 534.016q34.816 0 60.416-25.6t25.6-60.416-25.6-60.416-60.416-25.6-60.416 25.6-25.6 60.416 25.6 60.416 60.416 25.6zM512 617.984q-34.816 0-60.416 25.6t-25.6 60.416 25.6 60.416 60.416 25.6 60.416-25.6 25.6-60.416-25.6-60.416-60.416-25.6z" data-tags="tielabs_more_v" glyph-name="more_v" unicode=""/><glyph d="M1275.904 115.2q36.864 0 62.976-26.112t26.112-63.488-26.112-63.488-62.976-26.112h-1275.904v179.2h1275.904zM1015.808 538.112q36.864 0 62.976-26.624t26.112-63.488-26.112-62.976-62.976-26.112h-1015.808v179.2h1015.808zM1275.904 960q36.864 0 62.976-26.112t26.112-63.488-26.112-63.488-62.976-26.112h-1275.904v179.2h1275.904z" data-tags="tielabs_ico_menu" glyph-name="ico_menu" horiz-adv-x="1365" unicode=""/><glyph d="M384 269.824l451.584 452.608 60.416-60.416-512-512-237.568 237.568 59.392 60.416z" data-tags="tielabs_check" glyph-name="check" unicode=""/><glyph d="M669.696 724.48l-32.768-686.080q-1.024-19.456-15.36-32.768t-33.792-13.312h-454.656q-19.456 0-33.28 13.312t-14.848 32.768l-32.768 686.080h617.472zM515.072 573.952h-31.744q-7.168 0-13.312-5.632t-6.144-13.824v-392.192q0-8.192 5.632-13.824t13.824-5.632h31.744q8.192 0 13.824 5.632t5.632 13.824v392.192q0 8.192-5.632 13.824t-13.824 5.632v0zM376.832 573.952h-31.744q-8.192 0-13.824-5.632t-5.632-13.824v-392.192q0-8.192 5.632-13.824t13.824-5.632h31.744q8.192 0 13.824 5.632t5.632 13.824v392.192q0 8.192-5.632 13.824t-13.824 5.632v0zM238.592 573.952h-31.744q-8.192 0-14.336-5.632t-6.144-13.824v-392.192q0-8.192 6.144-13.824t14.336-5.632h31.744q8.192 0 13.824 5.632t5.632 13.824v392.192q0 8.192-5.632 13.824t-13.824 5.632v0zM471.040 960q4.096 0 7.168-3.072t3.072-7.168v-39.936h209.92q12.288 0 21.504-8.704t9.216-22.016v-95.232h-721.92v95.232q0 13.312 8.704 22.016t22.016 8.704h209.92v39.936q0 5.12 3.072 7.68t7.168 2.56v0h220.16z" data-tags="tielabs_trash" glyph-name="trash_2" horiz-adv-x="723" unicode=""/><glyph d="M512 911.872q125.952 0 234.496-63.488 104.448-61.44 165.888-165.888 63.488-108.544 63.488-234.496t-63.488-234.496q-61.44-104.448-165.888-165.888-108.544-63.488-234.496-63.488t-234.496 63.488q-104.448 61.44-165.888 165.888-63.488 108.544-63.488 234.496t63.488 234.496q61.44 104.448 165.888 165.888 108.544 63.488 234.496 63.488zM512 837.12q-105.472 0-196.608-53.248-88.064-51.2-139.264-139.264-53.248-91.136-53.248-196.608t53.248-196.608q51.2-88.064 139.264-139.264 91.136-53.248 196.608-53.248t196.608 53.248q88.064 51.2 139.264 139.264 53.248 91.136 53.248 196.608t-53.248 196.608q-51.2 88.064-139.264 139.264-91.136 53.248-196.608 53.248zM405.504 606.72l5.12-4.096 101.376-101.376 101.376 101.376q11.264 11.264 27.136 11.264t26.112-10.752 11.264-24.064-7.168-24.576l-4.096-5.12-101.376-101.376 101.376-101.376q11.264-10.24 11.264-26.112t-10.752-26.624-24.064-11.776-24.576 7.168l-5.12 4.096-101.376 101.376-101.376-101.376q-10.24-10.24-26.112-10.24t-26.624 10.24-11.776 23.552 7.168 24.576l4.096 5.12 101.376 101.376-101.376 101.376q-10.24 11.264-10.24 27.136t10.24 26.112 23.552 11.264 24.576-7.168z" data-tags="tielabs_x_circle" glyph-name="x_circle" unicode=""/><glyph d="M751.616 960v0q6.144 0 8.192-1.024h4.096l11.264-4.096 3.072-1.024 4.096-3.072h1.024v-1.024q2.048-1.024 4.096-3.072 1.024 0 1.024-1.024l6.144-6.144 1.024-2.048 174.080-239.616q13.312-17.408 9.728-39.424t-20.48-34.816-37.376-10.752-34.816 16.384l-4.096 5.12-76.8 106.496v-750.592q0-22.528-15.872-38.4t-37.376-15.872-36.864 13.312-17.408 33.792v757.76l-76.8-106.496q-12.288-16.384-32.256-20.992t-37.376 5.632l-6.144 4.096q-16.384 11.264-20.992 31.232t5.632 37.376l3.072 6.144 176.128 240.64q1.024 2.048 3.072 4.096l-4.096-5.12q2.048 3.072 6.144 7.168l2.048 3.072q1.024 0 3.072 2.048l2.048 1.024q2.048 2.048 4.096 2.048 0 1.024 2.048 2.048t3.072 1.024l9.216 3.072h3.072q1.024 1.024 4.096 1.024h4.096zM212.992 960q20.48 0 35.84-13.312t17.408-33.792l1.024-7.168v-771.072l92.16 126.976q13.312 17.408 35.328 21.504t38.912-8.704 21.504-32.768-4.608-37.376l-178.176-245.76q-9.216-12.288-23.040-18.432t-28.16-4.096h-8.192q-20.48 0-35.84 13.312t-17.408 33.792l-1.024 10.24-148.48 204.8q-13.312 18.432-9.728 40.448t22.016 35.328q16.384 11.264 36.864 9.216t33.792-16.384l65.536-90.112v729.088q0 22.528 15.872 38.4t38.4 15.872z" data-tags="tielabs_drag" glyph-name="drag" unicode=""/><glyph d="M931.84 540.16q39.936 0 66.048-25.6t26.112-66.048-26.112-66.56-66.048-26.112h-327.68v-325.632q0-40.96-25.6-67.584t-65.536-26.624-66.56 27.648q-26.624 25.6-26.624 66.56v325.632h-327.68q-39.936 0-66.048 26.624t-26.112 66.048 26.112 65.536 66.048 26.112h327.68v327.68q0 39.936 26.112 66.048t66.56 26.112 66.048-26.112 25.6-66.048v-327.68h327.68z" data-tags="tielabs_add" glyph-name="add" unicode=""/><glyph d="M1024 846.336h-180.224l-104.448 113.664h-340.992l-104.448-113.664h-180.224q-30.72 0-56.832-15.36t-41.472-41.472-15.36-56.832v-683.008q0-30.72 15.36-56.832t41.472-41.472 56.832-15.36h910.336q30.72 0 56.832 15.36t41.472 41.472 15.36 56.832v683.008q0 30.72-15.36 56.832t-41.472 41.472-56.832 15.36zM1024 49.664h-910.336v683.008h227.328l107.52 113.664h240.64l104.448-113.664h230.4v-683.008zM568.32 675.328q-86.016 0-158.208-48.128t-104.96-128-15.872-164.352 78.336-145.92 145.92-77.824 164.352 16.896 127.488 105.472 47.616 158.208q0 56.32-21.504 108.544t-61.952 92.16-92.672 61.44-108.544 21.504zM568.32 220.672q-46.080 0-85.504 23.040t-62.464 62.464-23.040 85.504 23.040 85.504 62.464 62.464 85.504 23.040 85.504-23.040 62.464-62.464 23.040-85.504-23.040-85.504-62.464-62.464-85.504-23.040z" data-tags="tielabs_upload_image" glyph-name="upload_image" horiz-adv-x="1138" unicode=""/><glyph d="M487.424 725.504h674.816q16.384 0 27.136 11.264t10.752 26.624v93.184q0 15.36-10.752 26.624t-27.136 11.264h-674.816q-15.36 0-26.112-11.264t-10.752-26.624v-93.184q0-15.36 10.752-26.624t26.112-11.264zM487.424 350.72h674.816q16.384 0 27.136 10.752t10.752 27.136v93.184q0 15.36-10.752 26.624t-27.136 11.264h-674.816q-15.36 0-26.112-11.264t-10.752-26.624v-93.184q0-16.384 10.752-27.136t26.112-10.752zM487.424-24.064h674.816q16.384 0 27.136 10.752t10.752 26.112v94.208q0 15.36-10.752 26.112t-27.136 10.752h-674.816q-15.36 0-26.112-10.752t-10.752-26.112v-94.208q0-15.36 10.752-26.112t26.112-10.752zM150.528 172.544q-30.72 0-57.344-15.36t-41.984-40.96-15.36-56.32 15.36-56.32 41.984-40.96 57.344-15.36 56.32 15.36 40.448 40.96 14.848 56.32-14.848 56.32-40.448 40.96-56.32 15.36zM366.592 872.96l-205.824-205.824q-7.168-7.168-19.968-7.168t-20.992 7.168l-111.616 111.616q-8.192 8.192-8.192 19.968t8.192 19.968l36.864 36.864q8.192 8.192 19.968 8.192t19.968-8.192l53.248-52.224 149.504 148.48q8.192 8.192 19.968 8.192t19.968-8.192l39.936-38.912q8.192-8.192 7.68-19.968t-8.704-19.968v0zM366.592 499.2l-205.824-205.824q-8.192-8.192-20.48-8.192t-20.48 8.192l-111.616 111.616q-8.192 8.192-8.192 19.968t8.192 18.944l36.864 36.864q8.192 8.192 19.968 8.192t19.968-8.192l53.248-51.2 149.504 149.504q8.192 8.192 19.968 8.192t19.968-8.192l39.936-39.936q8.192-8.192 7.68-19.968t-8.704-19.968v0z" data-tags="tielabs_tasks" glyph-name="tasks" horiz-adv-x="1204" unicode=""/><glyph d="M901.12 853.504q31.744-28.672 36.864-70.656t-18.432-76.8l-7.168-10.24-220.16-252.928 252.928-220.16q22.528-19.456 32.256-47.616t4.096-57.344-25.088-52.736q-28.672-31.744-70.656-36.864t-76.8 18.432l-10.24 7.168-252.928 220.16-220.16-252.928q-19.456-22.528-47.616-32.256t-57.344-4.096-52.736 25.088q-31.744 28.672-36.864 70.656t18.432 76.8l7.168 10.24 220.16 252.928-252.928 220.16q-34.816 30.72-37.888 76.8t26.624 80.896q28.672 31.744 70.656 36.864t76.8-18.432l10.24-7.168 252.928-220.16 220.16 252.928q19.456 22.528 47.616 32.256t57.344 4.096 52.736-25.088z" data-tags="tielabs_x" glyph-name="x" unicode=""/><glyph d="M547.84 711.168q0 67.584 33.28 124.928t90.624 90.624 124.928 33.28 124.928-33.28 90.624-90.624 33.28-124.928-33.28-124.928-90.624-90.624-124.928-33.28-124.928 33.28-90.624 90.624-33.28 124.928zM119.808 601.6q0 54.272 26.624 99.84t72.192 72.192 99.84 26.624 100.352-26.624 72.704-72.192 26.624-99.84-26.624-99.84-72.704-72.192-100.352-26.624-99.84 26.624-72.192 72.192-26.624 99.84zM1075.2 601.6q0 54.272 26.624 99.84t72.192 72.192 99.84 26.624 100.352-26.624 72.704-72.192 26.624-99.84-26.624-99.84-72.704-72.192-100.352-26.624-99.84 26.624-72.192 72.192-26.624 99.84zM1020.928 412.16q47.104 0 87.040-23.552t63.488-63.488 23.552-87.040v-174.080q0-24.576-17.408-41.984t-43.008-17.408h-676.864q-24.576 0-41.984 17.408t-17.408 41.984v174.080q0 47.104 23.552 87.040t63.488 63.488 87.040 23.552h44.032q82.944-50.176 179.712-50.176t179.712 50.176h45.056zM318.464 238.080q0 44.032 14.336 84.992-40.96-2.048-81.408 7.68t-76.288 32.256h-35.84q-37.888 0-69.632-18.944t-50.688-50.688-18.944-69.632v-79.872q0-24.576 17.408-42.496t41.984-17.92h259.072v154.624zM1453.056 363.008h-34.816q-73.728-45.056-158.72-39.936 16.384-40.96 14.336-84.992v-154.624h259.072q24.576 0 42.496 17.92t17.92 42.496v79.872q0 37.888-18.944 69.632t-51.2 50.688-70.144 18.944v0z" data-tags="tielabs_users" glyph-name="users" horiz-adv-x="1593" unicode=""/><glyph d="M870.4-64h-716.8q-41.984 0-77.312 20.48t-55.808 55.808-20.48 77.312v819.2q0 21.504 14.848 36.352t36.352 14.848h716.8q21.504 0 36.352-14.848t14.848-36.352v-358.4h204.8v-460.8q0-41.984-20.48-77.312t-55.808-55.808-77.312-20.48zM819.2 448v-358.4q0-21.504 14.848-36.352t36.352-14.848 36.352 14.848 14.848 36.352v358.4h-102.4zM153.6 755.2v-307.2h307.2v307.2h-307.2zM153.6 396.8v-102.4h512v102.4h-512zM153.6 243.2v-102.4h512v102.4h-512zM256 652.8h102.4v-102.4h-102.4v102.4z" data-tags="tielabs_q" glyph-name="news_4" unicode=""/><glyph d="M640 64q0-34.816-17.408-64t-46.592-46.592-64-17.408-64 17.408-46.592 46.592-17.408 64v0h256zM512 960q88.064 0 162.816-43.008 72.704-41.984 114.688-113.664 43.008-74.752 43.008-162.816v-192.512q0-56.32 30.72-110.592 23.552-39.936 64.512-80.896h32.768q28.672 0 46.080-17.92t17.408-46.592-17.408-46.080-46.080-17.408h-896q-28.672 0-46.592 17.408t-17.92 46.592 17.92 46.592 46.592 17.408h31.744q96.256 94.208 96.256 191.488v192.512q0 88.064 43.008 162.816 41.984 71.68 113.664 113.664 74.752 43.008 162.816 43.008z" data-tags="tielabs_noti" glyph-name="noti" unicode=""/><glyph d="M274.432 204.288h84.992v-84.992h512v681.984h-512v-84.992h-84.992v128q0 17.408 12.8 30.208t30.208 12.8h596.992q17.408 0 30.208-12.8t12.8-30.208v-768q0-17.408-12.8-30.208t-30.208-12.8h-596.992q-17.408 0-30.208 12.8t-12.8 30.208v128zM359.424 503.296h299.008v-86.016h-299.008v-128l-212.992 171.008 212.992 171.008v-128z" data-tags="tielabs_logout" glyph-name="logout" unicode=""/><glyph d="M765.952 648.704q0-84.992-43.008-157.696-41.984-70.656-113.664-112.128t-156.672-41.472-158.72 41.984q-70.656 41.984-112.64 112.64-43.008 71.68-43.008 156.16t43.008 157.184q40.96 70.656 112.64 111.616 72.704 43.008 158.208 43.008t158.208-43.008q71.68-40.96 112.64-111.616 43.008-72.704 43.008-156.672zM904.192-15.872v92.16q0 47.104-23.552 86.528t-63.488 62.464-87.040 23.040h-556.032q-47.104 0-87.040-23.040t-63.488-62.464-23.552-86.528v-92.16q0-20.48 14.336-34.304t34.816-13.824h805.888q20.48 0 34.816 13.824t14.336 34.304z" data-tags="tielabs_user" glyph-name="user" horiz-adv-x="951" unicode=""/><glyph d="M140.288 136.704l145.408 145.408q-34.816 44.032-53.248 97.792t-18.432 111.104q0 93.184 46.080 172.032 46.080 76.8 122.88 122.88 78.848 46.080 172.032 46.080t172.032-46.080q76.8-46.080 122.88-122.88 46.080-78.848 46.080-172.032t-46.080-172.032q-46.080-77.824-122.88-122.88-79.872-47.104-172.032-47.104-57.344 0-111.104 18.944t-97.792 53.76l-144.384-145.408q-12.288-12.288-30.72-12.288t-30.72 12.288-12.288 30.208 12.288 30.208zM811.008 491.008q0 69.632-34.304 128.512t-93.184 93.184-128.512 34.304-128.512-34.304-93.184-93.184-34.304-128.512 34.304-128.512 93.184-93.184 128.512-34.304 128.512 34.304 93.184 93.184 34.304 128.512z" data-tags="tielabs_search_rtl" glyph-name="search_rtl" unicode=""/><glyph d="M883.712 136.704l-145.408 145.408q34.816 44.032 53.76 97.792t18.944 111.104q0 92.16-47.104 172.032-45.056 76.8-122.88 122.88-78.848 46.080-172.032 46.080t-172.032-46.080q-76.8-46.080-122.88-122.88-46.080-78.848-46.080-172.032t46.080-172.032q46.080-77.824 122.88-122.88 79.872-47.104 172.032-47.104 56.32 0 110.592 18.432t99.328 54.272l144.384-145.408q12.288-12.288 30.208-12.288t30.208 12.288 12.288 30.208-12.288 30.208zM212.992 491.008q0 69.632 34.304 128.512t93.184 93.184 128.512 34.304 128.512-34.304 93.184-93.184 34.304-128.512-34.304-128.512-93.184-93.184-128.512-34.304-128.512 34.304-93.184 93.184-34.304 128.512z" data-tags="tielabs_search" glyph-name="search" unicode=""/><glyph d="M1584.128 515.584q-78.848 133.12-199.168 233.472t-266.752 154.624q-152.576 56.32-316.416 56.32t-316.416-56.32q-147.456-54.272-267.776-154.624t-199.168-233.472q-18.432-31.744-18.432-67.584t18.432-67.584q78.848-133.12 199.168-233.472t267.776-154.624q152.576-56.32 316.416-56.32t316.416 56.32q146.432 54.272 266.752 154.624t199.168 233.472q18.432 31.744 18.432 67.584t-18.432 67.584zM801.792 69.12q-103.424 0-191.488 52.224-86.016 50.176-136.192 135.168-51.2 89.088-51.2 191.488t51.2 191.488q50.176 84.992 136.192 135.168 88.064 52.224 190.976 52.224t190.976-52.224q86.016-50.176 136.192-135.168 51.2-89.088 51.2-191.488t-51.2-191.488q-50.176-84.992-136.192-135.168-88.064-52.224-190.464-52.224zM1090.56 448q0-78.848-38.912-145.408t-104.448-104.448q-66.56-39.936-145.408-39.936t-146.432 39.936q-65.536 37.888-103.424 103.424-39.936 67.584-39.936 146.432 0 71.68 33.792 136.192v0q0-32.768 15.872-59.904t43.52-43.008 59.904-15.872 59.904 15.872 43.52 43.52 15.872 59.392-15.872 59.392-43.52 43.52-59.392 15.872v0q61.44 34.816 136.192 34.816 78.848 0 145.408-39.936 65.536-37.888 104.448-104.448t38.912-145.408z" data-tags="tielabs_eye" glyph-name="eye" horiz-adv-x="1621" unicode=""/><glyph d="M1682.432 960h-1559.552q-38.912 0-69.632-21.504-28.672-20.48-41.984-53.248t-7.168-67.584q6.144-36.864 33.792-64.512l779.264-779.264q23.552-23.552 54.784-31.744t61.952 0 54.272 31.744l780.288 779.264q27.648 27.648 33.792 64.512 6.144 34.816-7.68 67.584t-42.496 53.248q-30.72 21.504-69.632 21.504z" data-tags="tielabs_caret_down" glyph-name="caret_down" horiz-adv-x="1920" unicode=""/><glyph d="M1682.432-64h-1559.552q-38.912 0-69.632 21.504-28.672 20.48-41.984 53.248t-7.168 67.584q6.144 36.864 33.792 64.512l779.264 779.264q23.552 23.552 54.784 31.744t61.952 0 54.272-31.744l780.288-779.264q27.648-27.648 33.792-64.512 6.144-34.816-7.68-67.584t-42.496-53.248q-30.72-21.504-69.632-21.504z" data-tags="tielabs_caret_up" glyph-name="caret_up" horiz-adv-x="1920" unicode=""/><glyph d="M309.248 192h-181.248v181.248l488.448 487.424q12.288 13.312 29.696 13.312t29.696-13.312l120.832-120.832q13.312-12.288 13.312-29.696t-13.312-29.696zM128 107.008h768v-86.016h-768v86.016z" data-tags="tielabs_edit" glyph-name="edit" unicode=""/><glyph d="M673.792 960l-8.192-93.184h8.192q52.224 0 96.768-25.088t70.144-67.584 25.6-93.184-26.112-93.184-70.144-67.584-96.256-25.088q-24.576 0-41.984 4.096l-1.024-10.24q-4.096-50.176-31.232-91.136t-70.144-64.512q-23.552-30.72-35.84-68.096t-12.288-77.312v-18.432q0-39.936 15.872-76.288t44.544-64h101.376q13.312 0 22.016-9.216t8.704-21.504v-31.744q0-13.312-8.704-22.016t-22.016-8.704h-419.84q-12.288 0-21.504 8.704t-9.216 22.016v31.744q0 12.288 9.216 21.504t21.504 9.216h102.4q27.648 26.624 43.52 62.976t15.872 76.288v13.312q0 43.008-14.848 83.456t-41.472 73.216q-38.912 24.576-64 64t-29.184 86.528l-1.024 10.24q-17.408-4.096-41.984-4.096-52.224 0-96.256 25.088t-70.144 67.584-26.112 93.184 25.6 93.184 70.144 67.584 96.768 25.088h8.192l-8.192 93.184h481.28zM192.512 773.632q-39.936 0-68.096-27.136t-28.16-66.048 28.16-66.048 68.096-27.136q18.432 0 33.792 6.144l-16.384 179.2q-6.144 1.024-17.408 1.024zM673.792 773.632q-11.264 0-17.408-1.024l-16.384-179.2q17.408-6.144 33.792-6.144 39.936 0 68.096 27.136t28.16 66.048-28.16 66.048-68.096 27.136z" data-tags="tielabs_cup" glyph-name="cup" horiz-adv-x="870" unicode=""/><glyph d="M983.040 915.968l-896-249.856q-19.456-9.216-31.744-26.624t-12.288-35.84v-249.856q0-18.432 12.288-35.84t31.744-26.624l83.968-18.432v-231.424q0-28.672 17.408-45.568t46.080-16.896h320.512q28.672 0 46.080 16.896t17.408 45.568v106.496l364.544-100.352q19.456-6.144 38.912 1.024t32.256 23.552 12.8 37.888v743.424q0 32.768-24.576 50.176t-59.392 12.288zM490.496 103.936h-191.488v131.072l191.488-56.32v-74.752z" data-tags="tielabs_speaker" glyph-name="speaker" horiz-adv-x="1170" unicode=""/><glyph d="M852.992 499.2q19.456 0 34.304-12.8t16.896-32.256v-347.136q0-35.84-16.896-66.048t-46.080-49.152-65.024-20.992l-8.192-1.024h-512q-35.84 0-66.048 16.896t-49.152 46.080-20.992 65.024v350.208q0 21.504 14.848 36.352t36.352 14.848q19.456 0 33.792-12.8t16.384-32.256l1.024-6.144v-340.992q0-13.312 8.192-22.528t20.48-11.264l5.12-1.024h512q13.312 0 22.528 8.704t11.264 20.992v346.112q0 21.504 15.36 36.352t35.84 14.848zM512 926.208h1.024q3.072 0 4.096-1.024l-5.12 1.024q5.12 0 7.168-1.024h3.072q1.024-1.024 3.072-1.024l8.192-3.072q1.024 0 3.072-1.024t2.048-2.048l5.12-3.072 175.104-175.104q15.36-14.336 15.36-35.84t-14.848-35.84-33.792-15.36-34.304 11.264l-5.12 4.096-82.944 82.944v-431.104q0-21.504-14.848-36.352t-35.328-14.848-35.328 12.8-16.896 32.256v437.248l-82.944-82.944q-14.336-14.336-33.792-15.36t-33.792 11.264l-5.12 4.096q-13.312 13.312-14.336 32.768t10.24 34.816l175.104 175.104v1.024q2.048 1.024 4.096 3.072l-4.096-4.096q1.024 2.048 4.096 4.096t5.12 3.072v1.024h1.024q2.048 2.048 5.12 2.048 0 1.024 1.024 1.024l4.096 1.024q1.024 1.024 2.048 1.024l3.072 1.024h3.072q2.048 0 3.072 1.024h4.096z" data-tags="tielabs_sahre" glyph-name="sahre" unicode=""/><glyph d="M791.552 359.936q-14.336 37.888-43.008 114.688l-50.176 135.168q-19.456-52.224-57.344-152.576l-35.84-97.28h186.368zM1003.52 78.336q0-18.432-11.776-32.256t-30.208-17.408-34.816 5.632-23.552 27.648q-35.84 90.112-64.512 173.056-4.096 13.312-11.776 17.92t-22.016 4.608q-109.568-2.048-219.136 0-11.264 0-16.896-3.584t-8.704-13.824l-65.536-176.128q-11.264-31.744-44.032-35.84-29.696-5.12-47.104 19.456-17.408 21.504-5.12 56.32l247.808 663.552q15.36 44.032 52.224 41.984 18.432 0 31.232-10.24t20.992-32.768l247.808-664.576q6.144-15.36 5.12-23.552v0zM194.56 436.736q-6.144-17.408-17.408-51.2l-44.032-123.904q-2.048-6.144-0.512-9.216t7.68-2.048h119.808q-16.384 45.056-47.104 135.168zM32.768 33.28q-19.456 1.024-28.16 15.872t-1.536 34.304l74.752 217.088q55.296 156.672 81.92 235.52 7.168 17.408 12.288 23.552 9.216 10.24 22.528 10.24t22.528-10.24q5.12-6.144 12.288-22.528 102.4-296.96 154.624-444.416l2.048-6.144q5.12-16.384 3.072-25.6-2.048-11.264-9.728-18.432t-17.92-8.192q-25.6-3.072-34.816 23.552l-36.864 106.496q-3.072 9.216-7.68 12.8t-13.824 3.584q-73.728-2.048-148.48 0-8.192 0-12.8-3.584t-7.68-11.776q-8.192-25.6-26.624-77.824l-9.216-27.648q-10.24-25.6-30.72-26.624z" data-tags="tielabs_font_size" glyph-name="font_size" unicode=""/><glyph d="M117.76 171.52q-31.744 0-58.88-15.872t-43.008-43.008-15.872-58.88 15.872-58.88 43.008-43.008 58.88-15.872 58.88 15.872 43.008 43.008 15.872 58.88-15.872 58.88-43.008 43.008-58.88 15.872zM117.76 565.76q-31.744 0-58.88-15.872t-43.008-43.008-15.872-58.88 15.872-58.88 43.008-43.008 58.88-15.872 58.88 15.872 43.008 43.008 15.872 58.88-15.872 58.88-43.008 43.008-58.88 15.872zM117.76 960q-31.744 0-58.88-15.872t-43.008-43.008-15.872-58.88 15.872-58.368 43.008-42.496 58.88-15.872 58.88 15.872 43.008 42.496 15.872 58.368-15.872 58.88-43.008 43.008-58.88 15.872z" data-tags="tielabs_more_h" glyph-name="more_v_2" horiz-adv-x="244" unicode=""/><glyph d="M724.992 883.2h-425.984q-36.864 0-68.608-18.432t-50.176-49.664-18.432-68.096v-683.008l1.024-6.144q2.048-18.432 15.36-30.72t31.232-14.336 33.28 9.216l269.312 192.512 269.312-192.512q16.384-11.264 35.328-8.704t32.256 16.384 13.312 34.304v683.008q0 36.864-18.432 68.096t-50.176 49.664-68.608 18.432zM724.992 780.8h5.12q12.288-2.048 20.992-11.776t8.704-22.016v-583.68l-218.112 155.648-5.12 3.072q-13.312 7.168-27.648 6.144t-26.624-9.216l-218.112-155.648v583.68q0 14.336 10.24 24.064t24.576 9.728h425.984z" data-tags="tielabs_bookmark" glyph-name="bookmark" unicode=""/><glyph d="M724.992 883.2q36.864 0 68.608-18.432t50.176-49.664 18.432-68.096v-683.008q0-20.48-13.312-34.304t-32.256-16.384-35.328 8.704l-269.312 192.512-269.312-192.512q-15.36-11.264-33.28-9.216t-31.232 14.336-15.36 30.72l-1.024 6.144v683.008q0 36.864 18.432 68.096t50.176 49.664 68.608 18.432v0h425.984z" data-tags="tielabs_bookmark2" glyph-name="bookmark2" unicode=""/><glyph d="M1389.568 283.136q0 11.264-7.68 19.456t-18.944 8.192h-135.168v135.168q0 11.264-8.192 18.944t-19.456 7.68h-90.112q-11.264 0-18.944-7.68t-7.68-18.944v-135.168h-136.192q-11.264 0-18.944-8.192t-7.68-19.456v-90.112q0-11.264 7.68-18.944t18.944-7.68h136.192v-136.192q0-11.264 7.68-18.944t18.944-7.68h90.112q11.264 0 19.456 7.68t8.192 18.944v136.192h135.168q11.264 0 18.944 7.68t7.68 18.944v90.112zM1010.688 30.208v-33.792q0-19.456-13.824-33.28t-33.28-13.824h-916.48q-19.456 0-33.28 13.824t-13.824 33.28v47.104q0 60.416 29.696 111.104t80.384 80.384 111.104 29.696h56.32q105.472-62.464 227.84-62.464t227.84 62.464h56.32q32.768 0 58.368-7.168v-64.512q0-40.96 29.184-70.144t70.144-29.184h58.368q5.12-24.576 5.12-57.344v-6.144zM189.44 644.608q0 86.016 43.008 158.72 41.984 71.68 113.664 113.664 73.728 43.008 159.744 43.008t158.72-43.008q71.68-41.984 113.664-113.664 43.008-72.704 43.008-158.72t-43.008-159.744q-41.984-71.68-113.664-113.664-72.704-43.008-158.72-43.008t-159.744 43.008q-71.68 41.984-113.664 113.664-43.008 73.728-43.008 159.744z" data-tags="tielabs_user_plus" glyph-name="user_plus" horiz-adv-x="1390" unicode=""/><glyph d="M512 960q139.264 0 258.048-69.632 115.712-68.608 184.32-184.32 69.632-118.784 69.632-258.048t-69.632-258.048q-68.608-115.712-184.32-184.32-118.784-69.632-258.048-69.632t-258.048 69.632q-115.712 68.608-184.32 184.32-69.632 118.784-69.632 258.048t69.632 258.048q68.608 115.712 184.32 184.32 118.784 69.632 258.048 69.632zM512 915.968q-126.976 0-235.52-63.488-106.496-62.464-168.96-168.96-63.488-108.544-63.488-235.52t63.488-235.52q62.464-106.496 168.96-168.96 108.544-63.488 235.52-63.488t235.52 63.488q106.496 62.464 168.96 168.96 63.488 108.544 63.488 235.52t-63.488 235.52q-62.464 106.496-168.96 168.96-108.544 63.488-235.52 63.488zM400.384 641.536q1.024 11.264 7.168 16.384t14.336 5.12 13.312-4.096l281.6-192.512q11.264-9.216 9.728-20.48t-9.728-15.36l-281.6-193.536q-4.096-4.096-12.288-4.096t-14.848 5.12-7.68 16.384v0 387.072zM444.416 599.552v-303.104l222.208 151.552z" data-tags="tielabs_play_button" glyph-name="play_button" unicode=""/><glyph d="M1210.368 580.096l-397.312 335.872q-16.384 14.336-37.888 13.312t-36.352-15.872-14.848-37.376v-177.152q-201.728-2.048-330.752-33.792-153.6-37.888-232.448-122.88-88.064-95.232-88.064-254.976 0-65.536 26.624-133.12 25.6-63.488 69.632-118.784 41.984-53.248 92.16-89.088 14.336-11.264 31.744-7.68t27.136 17.408 4.608 31.232q-50.176 157.696-19.456 247.808 28.672 87.040 137.216 124.928 97.28 34.816 281.6 37.888v-194.56q0-21.504 14.848-36.352t36.352-16.384 37.888 12.8l397.312 335.872q19.456 16.384 19.456 40.448t-19.456 40.448z" data-tags="tielabs_reply" glyph-name="reply" horiz-adv-x="1243" unicode=""/><glyph d="M745.472 491.008l-665.6 460.8q-11.264 8.192-29.696 8.704t-31.744-10.752q-16.384-14.336-18.432-40.96v-920.576q2.048-26.624 18.432-40.96 14.336-11.264 32.768-11.264t28.672 9.216l665.6 459.776q10.24 6.144 16.384 20.48 8.192 15.36 6.144 30.72-4.096 19.456-22.528 34.816v0z" data-tags="tielabs_play2" glyph-name="play2" horiz-adv-x="768" unicode=""/><glyph d="M252.343 696.686c48.11 0 91.965-18.215 125.046-48.125l-181.152-316.317c-75.593 23.814-130.409 94.469-130.409 177.928 0 103.009 83.505 186.514 186.514 186.514zM457.059 696.686c10.871 0 20.901-5.841 26.253-15.288l289.457-500.61-170.13-244.787h-599.235c-1.141-0.013-2.28 0.077-3.404 0.271l430.805 745.126c5.353 9.448 15.383 15.288 26.253 15.288zM1426.286-64h-789.943l363.562 526.121c13.077 18.919 44.537 20.097 59.912 3.568 1.033-1.127 1.992-2.319 2.872-3.568l363.596-526.121zM636.526 707.806c4.471 77.576 65.509 140.576 144.24 148.878s152.016-40.535 173.182-115.407c1.96 0.069 3.918 0.146 5.895 0.146 71.79-0.013 134.989-46.435 155.229-114.022 47.634 20.537 103.393 6.928 135.67-33.115h-504.659c-29.748-0.082-58.248 11.723-78.938 32.697s-31.786 49.309-30.734 78.482c0.032 0.779 0.070 1.56 0.114 2.341z" data-tags="no-cat-image٣" glyph-name="placeholder" horiz-adv-x="1170" unicode=""/><glyph d="M874.667-64c-82.347 0-149.333 66.987-149.333 149.333v224c0 52.907 43.093 96 96 96s96-43.093 96-96v-213.333c0-17.664-14.336-32-32-32s-32 14.336-32 32v213.333c0 17.621-14.379 32-32 32s-32-14.379-32-32v-224c0-47.061 38.272-85.333 85.333-85.333s85.333 38.272 85.333 85.333v288c0 17.664 14.336 32 32 32s32-14.336 32-32v-288c0-82.347-66.987-149.333-149.333-149.333zM631.893 21.333h-514.56c-64.725 0-117.333 52.608-117.333 117.333v704c0 64.725 52.608 117.333 117.333 117.333h533.333c64.725 0 117.333-52.608 117.333-117.333v-361.813c0-17.664-14.336-32-32-32s-32 14.336-32 32v361.813c0 29.397-23.936 53.333-53.333 53.333h-533.333c-29.397 0-53.333-23.936-53.333-53.333v-704c0-29.397 23.936-53.333 53.333-53.333h514.56c17.664 0 32-14.336 32-32s-14.336-32-32-32zM608 320h-448c-17.664 0-32 14.336-32 32s14.336 32 32 32h448c17.664 0 32-14.336 32-32s-14.336-32-32-32zM608 490.667h-448c-17.664 0-32 14.336-32 32s14.336 32 32 32h448c17.664 0 32-14.336 32-32s-14.336-32-32-32zM394.667 661.333h-234.667c-17.664 0-32 14.336-32 32s14.336 32 32 32h234.667c17.664 0 32-14.336 32-32s-14.336-32-32-32z" data-tags="attachment" glyph-name="attachment" unicode=""/><glyph d="M660.472 713.498c14.255 0 28.521-0.313 42.771 0.141 6.25 0.202 14.956-2.482 17.438 5.766 1.841 6.149-4.994 10.043-9.11 13.968-36.42 34.73-72.704 69.602-109.593 103.828-12.671 11.763-27.421 36.481-38.66 31.134-15.653-7.45-4.797-33.056-6.094-50.756-7.173-97.921 28.248-107.676 103.247-104.080zM43.868 447.309c0-145.393 0.308-290.791-0.334-436.184-0.095-21.913 5.288-30.7 29.566-30.59 203.377 0.965 406.765 0.495 610.158 0.601 52.39 0.030 81.032 25.898 81.244 77.834 0.807 195.816 0.217 391.642 0.56 587.463 0.035 18.023-5.882 25.257-24.844 25.015-44.506-0.58-89.209-1.417-133.508 2.008-54.539 4.207-91.529 46.705-92.362 101.28-0.494 32.768-0.126 65.551-0.131 98.329-0.010 37.656 0 37.833-36.687 37.853-132.787 0.076-265.574 0.066-398.361-0.005-34.887-0.020-35.275-0.358-35.295-34.977-0.081-142.876-0.035-285.751-0.005-428.627zM0.008 446.648c0 154.629-0.025 309.263 0.020 463.897 0.015 37.949 6.013 44.047 43.452 44.062 157.151 0.055 314.307-0.242 471.454 0.349 20.056 0.075 35.018-6.19 49.243-20.017 73.521-71.453 147.466-142.482 221.825-213.063 15.658-14.866 23.27-30.68 23.194-52.885-0.661-202.535-0.268-405.070-0.48-607.6-0.066-59.992-30.538-103.333-82.036-119.621-13.196-4.172-26.513-4.187-39.881-4.192-215.983-0.116-431.962-0.121-647.94-0.020-33.731 0.015-38.796 5.332-38.811 40.153-0.081 156.309-0.035 312.623-0.040 468.937zM240.084 239.731c34.975-6.773 62.744-41.006 63.206-77.54 0.453-35.728-26.611-71.117-60.681-78.83-18.036-4.081-36.42-2.062-54.59-1.313-11.028 0.455-17.127 9.169-17.252 21.614-0.19 19.23-0.048 38.459-0.056 57.689-0.007 18.611-0.054 37.22 0.006 55.828 0.050 16.401 7.521 24.064 23.893 23.751 15.162-0.289 30.433 1.712 45.475-1.201zM412.509 237.316c30.804-10.666 54.113-44.002 53.819-76.695-0.339-37.702-30.386-73.173-66.847-78.369-19.375-2.757-36.321 3.921-50.587 16.463-24.683 21.7-36.584 48.76-27.69 81.52 8.616 31.727 28.973 52.774 62.031 59.88 10.023 2.155 19.795 0.485 29.275-2.799zM606.582 219.231c8.504-7.926 8.798-19.414 1.521-27.517-7.392-8.23-19.593-8.988-28.196-0.653-10.715 10.383-22.912 12.943-36.843 9.326-9.152-2.377-16.42-7.609-20.57-16.174-7.344-15.158-7.532-30.726 0.088-45.721 6.415-12.618 17.882-17.44 32.816-17.384 8.755-0.537 16.832 3.205 23.922 10.073 9.783 9.481 21.627 9.924 29.559 1.585 8.17-8.591 7.102-21.361-3.339-30.269-20.578-17.554-44.062-26.080-70.69-17.265-29.355 9.716-47.96 30.836-54.68 60.799-9.818 43.788 24.305 90.4 68.816 94.554 22.198 2.070 41.442-6.298 57.596-21.355zM359.689 177.761c-7.447-23.878 1.382-48.311 19.856-54.922 1.163-0.416 2.353-0.785 3.557-1.052 25.712-5.705 44.289 10.918 44.25 39.578-0.028 20.624-9.201 34.947-25.060 39.14-19.804 5.237-36.686-3.777-42.604-22.744zM217.103 202.098c-5.972 0.44-7.471-2.549-7.376-7.851 0.198-10.871 0.060-21.749 0.065-32.624v-10.252l-0.022-5.592-0.017-5.592c-0.028-18.555-0.026-18.551 18.732-18.639 0.923-0.004 1.848-0.351 2.765-0.326 13.347 0.319 23.19 6.248 28.766 18.516 5.371 11.813 5.399 24.223 2.36 36.485-3.977 16.049-14.882 24.7-31.3 25.712-4.644 0.287-9.337-0.179-13.974 0.164z" data-tags="doc" glyph-name="doc" horiz-adv-x="819" unicode=""/><glyph d="M660.472 713.498c14.255 0 28.521-0.313 42.771 0.141 6.25 0.202 14.956-2.482 17.438 5.766 1.841 6.149-4.994 10.043-9.11 13.968-36.42 34.73-72.704 69.602-109.593 103.828-12.671 11.763-27.421 36.481-38.66 31.134-15.653-7.45-4.797-33.056-6.094-50.756-7.173-97.921 28.248-107.676 103.247-104.080zM43.868 447.309c0-145.393 0.308-290.791-0.334-436.184-0.095-21.913 5.288-30.7 29.566-30.59 203.377 0.965 406.765 0.495 610.158 0.601 52.39 0.030 81.032 25.898 81.244 77.834 0.807 195.816 0.217 391.642 0.56 587.463 0.035 18.023-5.882 25.257-24.844 25.015-44.506-0.58-89.209-1.417-133.508 2.008-54.539 4.207-91.529 46.705-92.362 101.28-0.494 32.768-0.126 65.551-0.131 98.329-0.010 37.656 0 37.833-36.687 37.853-132.787 0.076-265.574 0.066-398.361-0.005-34.887-0.020-35.275-0.358-35.295-34.977-0.081-142.876-0.035-285.751-0.005-428.627zM0.008 446.648c0 154.629-0.025 309.263 0.020 463.897 0.015 37.949 6.013 44.047 43.452 44.062 157.151 0.055 314.307-0.242 471.454 0.349 20.056 0.075 35.018-6.19 49.243-20.017 73.521-71.453 147.466-142.482 221.825-213.063 15.658-14.866 23.27-30.68 23.194-52.885-0.661-202.535-0.268-405.070-0.48-607.6-0.066-59.992-30.538-103.333-82.036-119.621-13.196-4.172-26.513-4.187-39.881-4.192-215.983-0.116-431.962-0.121-647.94-0.020-33.731 0.015-38.796 5.332-38.811 40.153-0.081 156.309-0.035 312.623-0.040 468.937zM623.312 254.688c8.651-0.081 18.215-1.402 18.654-12.424 0.489-12.545-10.195-14.356-19.426-14.936-14.24-0.898-28.611-1.16-42.847-0.353-16.071 0.908-20.071-7.173-20.066-21.388 0.005-14.578 5.241-22.024 20.631-21.443 11.738 0.439 23.527-0.172 35.29-0.525 8.242-0.247 15.547-2.916 15.985-12.399 0.439-9.504-7.355-13.383-14.825-14.286-11.622-1.402-23.542-1.68-35.22-0.852-17.080 1.206-25.111-5.019-23.945-22.851 0.777-11.703 0.055-23.527-0.393-35.285-0.404-10.528-5.019-18.16-16.646-17.892-11.365 0.272-16.313 7.804-16.439 18.351-0.267 22.694-0.081 45.389-0.081 68.088h-0.192c0 21.015 0.237 42.034-0.081 63.049-0.237 16.53 7.032 25.252 23.945 25.232 25.217-0.035 50.438 0.156 75.655-0.086zM195.393 254.806c20.974-0.242 41.994 0.288 62.918-0.928 25.691-1.498 40.032-15.678 43.169-40.466 3.521-27.83-7.299-48.92-30.226-57.203-11.032-3.99-22.735-7.39-34.528-5.589-24.631 3.773-30.886-8.353-28.344-29.994 0.777-6.598 0.509-13.524-0.58-20.076-1.861-11.158-8.066-18.659-20.47-17.58-11.123 0.974-15.985 8.192-16.036 18.861-0.101 21.822-0.025 43.644-0.025 65.465h-0.101c0 20.984 0.338 41.974-0.101 62.953-0.358 17.025 7.758 24.748 24.324 24.556zM417.685 254.907c23.365 0.605 40.597-10.406 52.315-29.111 21.751-34.73 22.205-71.831 4.384-107.742-11.602-23.37-33.293-34.276-59.992-34.241-86.778 0.116-75.968-9.1-76.568 73.274-0.030 4.192 0 8.379 0.030 12.565 0.030 20.097-0.015 40.193 0.040 60.295 0.045 16.253 7.809 24.944 24.526 24.879 18.422-0.066 36.854-0.398 55.266 0.081zM387.742 225.932c-22.407-2.381-10.386-22.019-12.898-34.064-1.503-7.203-0.277-14.972-0.277-22.483h0.172c0-13.357-0.172-26.72 0.071-40.067 0.121-6.598 0.247-12.908 8.601-16.011 21.186-7.864 52.128 2.668 60.391 22.785 9.211 22.442 8.969 45.833-0.232 68.285-10.709 26.099-34.614 23.799-55.826 21.554zM208.891 201.981c-3.4-18.033 3.975-25.474 23.058-24.253 17.554 1.13 33.182 4.641 33.535 25.232 0.393 23.027-18.356 24.556-35.396 26.427-21.257 2.33-23.073-10.966-21.196-27.406zM436.498 792.429c6.86-15.083 6.492-30.982 5.725-51.926-0.979-7.567-0.938-20.515-4.454-32.415-20.944-70.848 27.285-112.009 66.52-157.020 7.027-8.056 17.156-4.974 26.215-4.928 18.437 0.101 37.091 2.093 55.256-0.076 19.395-2.32 32.768-14.447 31.689-35.583-1.064-20.808-14.356-30.972-34.614-32.758-24.853-2.194-48.723 1.271-70.5 13.832-12.5 7.203-25.277 8.005-38.811 5.292-31.224-6.255-62.348-13.045-93.699-18.573-15.294-2.694-25.328-10.225-33.53-23.295-19.012-30.286-43.775-55.266-75.085-73.002-30.892-17.499-62.101-14.558-74.858 6.285-14.719 24.036-4.762 55.785 24.647 75.847 26.619 18.16 56.522 29.545 87.328 37.994 16.197 4.444 26.15 13.347 31.709 28.758 4.268 11.819 9.347 23.36 14.442 34.856 22.725 51.316 35.482 102.304 3.44 155.396-9.413 15.597-12.051 34.745-11.481 53.601 0.762 25.131 15.037 44.9 35.472 48.774 22.604 4.283 44.108-8.026 54.59-31.058zM412.85 585.838c-14.729-1.584-12.207-27.93-20.45-42.024l-0.931-2.298-0.689-2.438c-2.885-9.070-1.705-15.118 10.063-13.872 12.298 2.396 24.652 4.53 36.864 7.274 10.81 2.431 14.573 8.157 6.053 17.378-11.183 12.122-17.726 37.394-30.912 35.981z" data-tags="pdf" glyph-name="pdf" horiz-adv-x="819" unicode=""/><glyph d="M327.955 304.555l42.42-42.42-326.037-326.037-42.42 42.42 326.037 326.037zM125.146 592.304c70.294 70.294 184.264 70.294 254.558 0 0 0 278.6-278.6 278.6-278.6 70.294-70.294 70.294-184.264 0-254.558v0zM641.334 769.080l193.746-193.746-142.562-210.992-262.176 262.178 210.992 142.56zM704.974 960l321.026-321.026c-46.864-46.862-122.844-46.862-169.706 0v0l-151.32 151.32c-46.862 46.864-46.862 122.844 0 169.706v0z" data-tags="security_pin" glyph-name="security_pin" horiz-adv-x="1075" unicode=""/><glyph d="M180.565 323.852c4.322 1.426 9.297 2.249 14.465 2.249 8.57 0 16.612-2.263 23.56-6.224l-0.234 0.123c8.582-4.73 15.555-11.898 20.187-20.773l36.62-69.925 73.826-13.556c13.019-2.341 24.43-9.85 32.085-21.114 5.695-8.298 9.095-18.559 9.095-29.614 0-14.535-5.878-27.698-15.387-37.241l0.002 0.002-51.151-56.027 10.386-77.093c0.317-2.172 0.498-4.679 0.498-7.229 0-11.633-3.772-22.385-10.159-31.099l0.103 0.148c-8.046-10.971-19.651-18.042-32.768-19.992-2.053-0.312-4.421-0.49-6.831-0.49-7.782 0-15.13 1.856-21.626 5.15l0.273-0.126-69.242 34.231-67.389-34.036c-6.296-3.276-13.747-5.203-21.646-5.218h-0.005c-18.432 0-36.133 10.679-44.715 28.965-3.18 6.592-5.038 14.334-5.038 22.511 0 3.42 0.325 6.764 0.946 10.003l-0.053-0.331 9.606 76.069-52.126 56.076c-8.592 9.28-13.862 21.742-13.862 35.436 0 0.416 0.005 0.832 0.015 1.246l-0.001-0.061c0.244 13.751 5.656 26.575 15.214 36.084 6.987 7.069 16.117 12.007 26.336 13.759l0.288 0.041 74.167 14.287 35.255 68.706c6.066 11.865 16.413 20.815 28.954 24.915l0.352 0.099zM195.048 277.333c-4.045-0.068-7.528-2.405-9.237-5.791l-0.028-0.060-36.962-72.655c-2.481-4.899-7.002-8.458-12.415-9.586l-0.117-0.020-78.604-15.311c-2.252-0.362-4.212-1.412-5.704-2.925l-0.001-0.001c-1.965-1.997-3.188-4.729-3.218-7.747v-0.006c-0.049-2.926 0.975-5.754 2.926-7.851l54.613-59.294c3.755-4.145 5.559-9.801 4.876-15.458l-10.24-81.237-0.195-1.317c-0.135-0.659-0.212-1.417-0.212-2.194 0-1.771 0.402-3.449 1.119-4.946l-0.030 0.069c2.536-5.51 8.875-7.802 14.141-5.12l70.656 36.035c2.268 1.182 4.954 1.875 7.801 1.875 2.809 0 5.461-0.675 7.802-1.872l-0.097 0.045 72.411-36.133c1.853-0.926 3.901-1.219 5.998-0.926 2.896 0.439 5.357 2.019 6.951 4.259l0.022 0.032c1.342 1.842 2.147 4.15 2.147 6.647 0 0.528-0.036 1.047-0.106 1.556l0.007-0.059-10.874 81.627c-0.112 0.78-0.175 1.681-0.175 2.597 0 4.948 1.861 9.462 4.922 12.878l-0.016-0.018 54.76 60.514c2.099 2.070 3.398 4.945 3.398 8.124 0 2.371-0.723 4.573-1.961 6.398l0.026-0.040c-1.552 2.33-3.958 3.985-6.761 4.524l-0.066 0.011-77.531 14.336c-5.536 1.105-10.074 4.634-12.533 9.408l-0.047 0.101-38.278 73.777c-0.973 1.876-2.422 3.388-4.191 4.41l-0.052 0.028c-1.415 0.82-3.112 1.308-4.922 1.317h-0.003zM846.312 677.669c47.153 0 85.528-38.327 85.528-85.528v-287.695l38.668-117.419c7.509-23.893-0.488-48.616-20.285-63.293-10.24-7.558-22.089-11.362-33.938-11.362-11.118 0-22.187 3.316-32.037 9.947l-74.703 49.737h-290.231c-47.214 0.055-85.473 38.315-85.528 85.523v137.562h20.236c78.711 0.083 142.497 63.869 142.58 142.572v139.955zM684.227 552.253c-14.051-0.002-26.059-8.743-30.886-21.083l-0.078-0.225-78.507-206.165c-0.927-2.691-1.463-5.792-1.463-9.017 0-15.754 12.771-28.526 28.526-28.526 11.663 0 21.691 6.999 26.113 17.027l0.072 0.183 12.581 33.012h86.796l12.434-32.914c3.942-11.343 14.54-19.338 27.006-19.338 15.754 0 28.526 12.771 28.526 28.526 0 3.952-0.804 7.716-2.256 11.138l0.070-0.187-78.117 206.946c-5.018 12.197-16.808 20.627-30.568 20.627-0.088 0-0.175 0-0.263-0.001h0.013zM454.022 959.756c47.153 0 85.528-38.376 85.528-85.528v-336.457c0-47.202-38.376-85.577-85.528-85.577h-290.231l-74.703-49.737c-8.951-6.198-20.032-9.914-31.979-9.947h-0.008c-11.898 0-23.747 3.803-33.938 11.41-14.127 10.369-23.194 26.912-23.194 45.573 0 6.175 0.993 12.119 2.828 17.679l0.032-0.008 38.668 117.467v289.548c-0.049 47.202 38.376 85.577 85.528 85.577zM684.178 451.901l21.699-57.442h-43.593l21.894 57.442zM284.087 836.145c-73.433-0.083-132.939-59.59-133.022-133.014v-0.008c0.083-73.433 59.59-132.939 133.014-133.022h0.008c26.819 0 51.736 7.997 72.655 21.699l12.483-12.532c5.151-5.181 12.282-8.388 20.163-8.388s15.013 3.207 20.162 8.387l0.001 0.001c5.158 5.161 8.347 12.29 8.347 20.163s-3.19 15.002-8.347 20.163l-12.873 12.873c12.817 20.001 20.431 44.404 20.431 70.586 0 0.025 0 0.050 0 0.074v-0.004c-0.083 73.433-59.59 132.939-133.014 133.022h-0.008zM284.087 779.093c41.941-0.093 75.904-34.115 75.904-76.068 0-10.225-2.018-19.98-5.676-28.886l0.184 0.507-11.8 11.849c-5.211 5.498-12.566 8.919-20.72 8.919-15.754 0-28.526-12.771-28.526-28.526 0-8.154 3.421-15.509 8.906-20.707l0.013-0.012 12.483-12.532c-9.040-4.094-19.602-6.479-30.72-6.479-41.958 0-75.982 33.97-76.068 75.908v0.008c0 41.935 34.133 76.069 76.020 76.069z" data-tags="project_best_answers_count" glyph-name="project_best_answers_count" horiz-adv-x="975" unicode=""/><glyph d="M987.364 630.613c55.012 0 99.783-44.715 99.783-99.783v-335.644l45.113-136.988c8.761-27.876-0.569-56.718-23.666-73.842-11.947-8.818-25.771-13.255-39.595-13.255-12.971 0-25.884 3.868-37.376 11.605l-87.154 58.027h-338.603c-55.083 0.065-99.718 44.7-99.783 99.777v160.49h23.609c91.83 0.097 166.246 74.513 166.343 166.334v163.28zM798.265 484.295c-16.392-0.002-30.402-10.2-36.034-24.597l-0.091-0.263-91.591-240.526c-1.082-3.139-1.707-6.757-1.707-10.52 0-18.38 14.9-33.28 33.28-33.28 13.607 0 25.306 8.166 30.465 19.865l0.084 0.213 14.677 38.514h101.262l14.507-38.4c4.599-13.233 16.964-22.561 31.507-22.561 18.38 0 33.28 14.9 33.28 33.28 0 4.611-0.938 9.002-2.632 12.994l0.082-0.218-91.136 241.436c-5.854 14.229-19.61 24.065-35.662 24.065-0.102 0-0.205 0-0.307-0.001h0.016zM529.692 959.716c55.012 0 99.783-44.772 99.783-99.783v-392.533c0-55.068-44.772-99.84-99.783-99.84h-338.603l-87.154-58.027c-10.443-7.231-23.371-11.566-37.309-11.605h-0.010c-13.881 0-27.705 4.437-39.595 13.312-16.481 12.097-27.060 31.397-27.060 53.168 0 7.205 1.159 14.139 3.3 20.626l0.038-0.010 45.113 137.045v337.806c-0.057 55.068 44.772 99.84 99.783 99.84zM798.208 367.218l25.316-67.015h-50.859l25.543 67.015zM331.435 815.502c-85.672-0.097-155.096-69.521-155.193-155.184v-0.009c0.097-85.672 69.521-155.096 155.184-155.193h0.009c31.289 0 60.359 9.33 84.764 25.316l14.564-14.62c6.009-6.045 14.329-9.786 23.524-9.786s17.515 3.741 23.522 9.784l0.002 0.002c6.017 6.022 9.739 14.338 9.739 23.524s-3.721 17.502-9.739 23.524l-15.018 15.018c14.954 23.335 23.836 51.805 23.836 82.35 0 0.029 0 0.058 0 0.087v-0.005c-0.097 85.672-69.521 155.096-155.184 155.193h-0.009zM331.435 748.942c48.931-0.109 88.555-39.8 88.555-88.746 0-11.93-2.354-23.31-6.623-33.701l0.215 0.591-13.767 13.824c-6.079 6.414-14.66 10.406-24.173 10.406-18.38 0-33.28-14.9-33.28-33.28 0-9.513 3.991-18.094 10.391-24.159l0.015-0.014 14.564-14.62c-10.547-4.776-22.869-7.559-35.84-7.559-48.951 0-88.645 39.632-88.746 88.559v0.010c0 48.924 39.822 88.747 88.69 88.747z" data-tags="project_answers_count" glyph-name="project_answers_count" horiz-adv-x="1138" unicode=""/><glyph d="M870.4-70.016h-716.8q-41.984 0-77.312 20.48t-55.808 55.808-20.48 77.312v819.2q0 21.504 14.848 36.352t36.352 14.848h716.8q21.504 0 36.352-14.848t14.848-36.352v-358.4h204.8v-460.8q0-41.984-20.48-77.312t-55.808-55.808-77.312-20.48zM819.2 441.984v-358.4q0-21.504 14.848-36.352t36.352-14.848 36.352 14.848 14.848 36.352v358.4h-102.4zM153.6 749.184v-307.2h307.2v307.2h-307.2zM153.6 390.784v-102.4h512v102.4h-512zM153.6 237.184v-102.4h512v102.4h-512zM256 646.784h102.4v-102.4h-102.4v102.4z" data-tags="q" glyph-name="q" unicode=""/><glyph d="M670.944 703.488c14.496 0 28.992-0.32 43.456 0.16 6.368 0.192 15.2-2.56 17.728 5.856 1.856 6.24-5.088 10.176-9.28 14.176-36.992 35.296-73.856 70.72-111.328 105.472-12.864 11.968-27.84 37.056-39.264 31.648-15.904-7.584-4.864-33.6-6.176-51.584-7.296-99.456 28.672-109.376 104.864-105.728zM44.576 433.088c0-147.712 0.32-295.424-0.352-443.104-0.096-22.272 5.376-31.2 30.048-31.104 206.592 0.992 413.216 0.512 619.84 0.64 53.216 0 82.304 26.304 82.528 79.040 0.832 198.944 0.224 397.888 0.576 596.8 0 18.304-5.984 25.664-25.248 25.408-45.216-0.576-90.624-1.44-135.616 2.048-55.424 4.256-92.992 47.456-93.824 102.88-0.512 33.28-0.128 66.592-0.16 99.904 0 38.24 0 38.4-37.248 38.432-134.912 0.096-269.792 0.096-404.704 0-35.424 0-35.84-0.352-35.84-35.52-0.096-145.152-0.032-290.304 0-435.424zM0 432.416v471.264c0.064 38.528 6.176 44.736 44.16 44.736 159.68 0.064 319.296-0.224 478.944 0.384 20.384 0.096 35.584-6.272 50.016-20.32 66.899-65.1 140.295-135.679 214.095-205.837l11.249-10.611c15.936-15.104 23.68-31.168 23.584-53.728-0.672-205.76-0.288-411.52-0.48-617.248-0.096-60.928-31.040-104.96-83.36-121.504-13.408-4.256-26.912-4.256-40.512-4.256-219.392-0.128-438.816-0.128-658.24 0-34.24 0-39.392 5.376-39.392 40.768-0.096 158.752-0.064 317.536-0.064 476.352zM243.904 222.176c35.52-6.848 63.744-41.6 64.192-78.72 0.48-36.32-27.040-72.256-61.632-80.096-18.336-4.16-36.992-2.112-55.456-1.344-11.2 0.48-17.408 9.312-17.536 21.952-0.192 19.52-0.032 39.072-0.064 58.624v56.704c0.064 16.64 7.68 24.448 24.32 24.128 15.36-0.32 30.88 1.728 46.176-1.216zM419.072 219.744c31.264-10.816 54.944-44.704 54.656-77.92-0.32-38.272-30.88-74.304-67.904-79.584-19.68-2.816-36.896 3.968-51.392 16.704-25.088 22.080-37.152 49.536-28.128 82.816 8.736 32.224 29.44 53.6 63.040 60.832 10.144 2.176 20.096 0.48 29.728-2.848zM616.192 201.376c8.64-8.064 8.96-19.712 1.568-27.936-3.574-4.090-8.8-6.66-14.627-6.66-5.506 0-10.477 2.295-14.007 5.981l-0.007 0.007c-10.88 10.56-23.296 13.12-37.44 9.472-9.28-2.432-16.672-7.744-20.896-16.448-7.456-15.36-7.648-31.2 0.096-46.432 6.528-12.8 18.176-17.728 33.344-17.664 8.896-0.544 17.088 3.264 24.32 10.24 9.92 9.6 21.952 10.080 29.984 1.6 8.32-8.736 7.232-21.696-3.392-30.72-20.896-17.856-44.736-26.528-71.808-17.568-29.824 9.888-48.704 31.36-55.552 61.76-9.952 44.48 24.704 91.84 69.92 96.064 22.56 2.112 42.112-6.4 58.528-21.696zM365.408 159.264c-7.584-24.256 1.408-49.088 20.16-55.808 0.965-0.366 2.174-0.729 3.412-1.016l0.204-0.040c26.112-5.792 44.992 11.072 44.96 40.192-0.032 20.96-9.344 35.52-25.472 39.776-20.128 5.312-37.248-3.84-43.264-23.104zM220.544 183.968c-6.080 0.448-7.584-2.56-7.488-7.968 0.192-11.040 0.064-22.080 0.064-33.152v-16.096l-0.032-5.664c-0.032-18.88-0.032-18.88 19.008-18.944 0.96 0 1.92-0.352 2.816-0.32 13.568 0.32 23.552 6.336 29.216 18.816 5.472 12 5.504 24.576 2.4 37.056-4.032 16.32-15.104 25.088-31.776 26.112-4.736 0.32-9.504-0.192-14.208 0.16z" data-tags="doc" glyph-name="doc1" horiz-adv-x="832" unicode=""/><glyph d="M97.115 943.338c-22.216 22.216-58.237 22.216-80.453 0-20.508-20.508-22.085-52.777-4.733-75.094l4.733-5.359 414.84-414.885-414.84-414.885c-20.508-20.508-22.085-52.777-4.733-75.094l4.733-5.359c20.508-20.508 52.777-22.085 75.094-4.733l5.359 4.733 455.111 455.111c20.508 20.508 22.085 52.777 4.733 75.094l-4.733 5.359-455.111 455.111z" data-tags="Path2" glyph-name="chevron_right" horiz-adv-x="569" unicode=""/><glyph d="M471.773 943.338c22.216 22.216 58.237 22.216 80.453 0 20.508-20.508 22.085-52.777 4.733-75.094l-4.733-5.359-414.84-414.885 414.84-414.885c20.508-20.508 22.085-52.777 4.733-75.094l-4.733-5.359c-20.508-20.508-52.777-22.085-75.094-4.733l-5.359 4.733-455.111 455.111c-20.508 20.508-22.085 52.777-4.733 75.094l4.733 5.359 455.111 455.111z" data-tags="Path" glyph-name="chevron_left" horiz-adv-x="569" unicode=""/><glyph d="M89.6 115.2c-49.485 0-89.6-40.115-89.6-89.6s40.115-89.6 89.6-89.6h1275.733v179.2h-1275.733zM349.663 537.6c-49.485 0-89.6-40.115-89.6-89.6s40.115-89.6 89.6-89.6h1015.67v179.2h-1015.67zM89.6 960c-49.485 0-89.6-40.115-89.6-89.6s40.115-89.6 89.6-89.6h1275.733v179.2h-1275.733z" data-tags="rtl_menu" glyph-name="ico_menu_rtl" horiz-adv-x="1365" unicode=""/><glyph d="M447.664 960c247.114-0.3 447.364-200.551 447.664-447.667-0.314-96.41-32.045-190.091-90.383-266.848l199.53-199.531c16.625-16.057 23.292-39.835 17.44-62.194s-23.314-39.822-45.674-45.674c-22.359-5.853-46.137 0.815-62.194 17.44l-199.53 199.531c-76.757-58.343-170.44-90.075-266.852-90.39-247.238 0-447.664 200.427-447.664 447.667s200.426 447.667 447.664 447.667zM447.664 192.571c176.599 0 319.76 143.162 319.76 319.762s-143.161 319.762-319.76 319.762c-176.599 0-319.76-143.162-319.76-319.762 0.208-176.513 143.248-319.554 319.76-319.762z" data-tags="rtl_search" glyph-name="search_4" unicode=""/><glyph d="M670.944 703.488c14.496 0 28.992-0.32 43.456 0.16 6.368 0.192 15.2-2.56 17.728 5.856 1.856 6.24-5.088 10.176-9.28 14.176-36.992 35.296-73.856 70.72-111.328 105.472-12.864 11.968-27.84 37.056-39.264 31.648-15.904-7.584-4.864-33.6-6.176-51.584-7.296-99.456 28.672-109.376 104.864-105.728zM44.576 433.088c0-147.712 0.32-295.424-0.352-443.104-0.096-22.272 5.376-31.2 30.048-31.104 206.592 0.992 413.216 0.512 619.84 0.64 53.216 0 82.304 26.304 82.528 79.040 0.832 198.944 0.224 397.888 0.576 596.8 0 18.304-5.984 25.664-25.248 25.408-45.216-0.576-90.624-1.44-135.616 2.048-55.424 4.256-92.992 47.456-93.824 102.88-0.512 33.28-0.128 66.592-0.16 99.904 0 38.24 0 38.4-37.248 38.432-134.912 0.096-269.792 0.096-404.704 0-35.424 0-35.84-0.352-35.84-35.52-0.096-145.152-0.032-290.304 0-435.424zM0 432.416v471.264c0.064 38.528 6.176 44.736 44.16 44.736 159.68 0.064 319.296-0.224 478.944 0.384 20.384 0.096 35.584-6.272 50.016-20.32 66.899-65.1 140.295-135.679 214.095-205.837l11.249-10.611c15.936-15.104 23.68-31.168 23.584-53.728-0.672-205.76-0.288-411.52-0.48-617.248-0.096-60.928-31.040-104.96-83.36-121.504-13.408-4.256-26.912-4.256-40.512-4.256-219.392-0.128-438.816-0.128-658.24 0-34.24 0-39.392 5.376-39.392 40.768-0.096 158.752-0.064 317.536-0.064 476.352zM633.216 237.408c8.768-0.096 18.496-1.44 18.944-12.64 0.48-12.736-10.368-14.56-19.744-15.168-14.464-0.896-29.056-1.184-43.52-0.352-16.32 0.928-20.384-7.296-20.384-21.728 0-14.816 5.312-22.4 20.96-21.76 11.936 0.416 23.904-0.192 35.84-0.544 8.384-0.256 15.808-2.976 16.256-12.608 0.448-9.664-7.488-13.6-15.072-14.528-6.732-0.851-14.523-1.336-22.427-1.336-4.698 0-9.355 0.172-13.966 0.509l0.617-0.036c-17.344 1.248-25.504-5.088-24.32-23.2 0.768-11.904 0.064-23.904-0.416-35.84-0.416-10.688-5.088-18.464-16.896-18.176-11.52 0.256-16.576 7.936-16.704 18.624-0.256 23.040-0.096 46.112-0.096 69.184h-0.192c0 21.344 0.256 42.688-0.064 64.032-0.256 16.8 7.136 25.664 24.32 25.632 25.6 0 51.232 0.16 76.864-0.064zM198.496 237.504c21.312-0.224 42.656 0.32 63.904-0.928 26.112-1.536 40.672-15.936 43.84-41.12 3.616-28.256-7.36-49.696-30.688-58.112-11.2-4.032-23.104-7.488-35.072-5.664-25.024 3.84-31.36-8.48-28.8-30.464 0.8-6.72 0.512-13.76-0.576-20.416-1.92-11.328-8.192-18.944-20.8-17.856-11.296 0.992-16.224 8.32-16.288 19.2-0.096 22.144 0 44.32 0 66.464h-0.128c0 21.344 0.32 42.656-0.096 63.968-0.384 17.28 7.872 25.152 24.704 24.96zM424.32 237.632c23.744 0.608 41.248-10.56 53.12-29.568 22.112-35.296 22.592-72.96 4.48-109.44-11.808-23.776-33.824-34.848-60.96-34.816-88.16 0.128-77.152-9.248-77.76 74.432v12.8c0.032 20.384 0 40.8 0.064 61.216 0.032 16.512 7.936 25.344 24.896 25.28 18.72-0.064 37.44-0.416 56.16 0.096zM393.92 208.192c-22.784-2.432-10.56-22.4-13.12-34.624-1.536-7.296-0.288-15.2-0.288-22.816h0.16c0-13.568-0.16-27.168 0.096-40.704 0.128-6.72 0.256-13.12 8.736-16.288 21.504-8 52.96 2.72 61.344 23.168 4.365 10.166 6.903 21.998 6.903 34.422 0 12.627-2.621 24.642-7.35 35.531l0.223-0.577c-10.88 26.496-35.2 24.16-56.736 21.888zM212.192 183.872c-3.424-18.336 4.064-25.92 23.424-24.64 17.856 1.12 33.728 4.704 34.080 25.6 0.416 23.424-18.656 24.96-35.968 26.88-21.568 2.336-23.424-11.168-21.536-27.84zM443.424 783.68c6.976-15.328 6.592-31.488 5.824-52.768-0.992-7.68-0.96-20.8-4.544-32.928-21.248-71.968 27.744-113.76 67.584-159.488 7.136-8.192 17.44-5.056 26.624-5.024 18.752 0.096 37.696 2.144 56.16-0.064 19.68-2.368 33.28-14.688 32.192-36.16-1.088-21.12-14.592-31.456-35.2-33.28-25.216-2.24-49.472 1.28-71.584 14.080-12.704 7.296-25.696 8.096-39.424 5.344-31.744-6.336-63.36-13.248-95.2-18.88-15.552-2.72-25.728-10.368-34.080-23.648-19.296-30.752-44.48-56.128-76.256-74.144-31.36-17.792-63.104-14.816-76.064 6.4-14.944 24.384-4.8 56.64 25.056 77.024 27.040 18.464 57.408 30.016 88.704 38.592 16.448 4.512 26.56 13.568 32.224 29.216 4.32 12 9.504 23.744 14.656 35.424 23.104 52.128 36.064 103.904 3.52 157.856-9.6 15.84-12.256 35.296-11.68 54.432 0.768 25.536 15.264 45.632 36.032 49.568 22.976 4.352 44.8-8.16 55.456-31.552zM419.424 573.792c-14.976-1.6-12.416-28.352-20.8-42.688l-0.96-2.336-0.672-2.464c-2.944-9.216-1.728-15.36 10.24-14.080 12.48 2.432 25.024 4.576 37.44 7.36 10.976 2.496 14.784 8.32 6.144 17.664-11.36 12.32-18.016 37.984-31.424 36.544z" data-tags="pdf" glyph-name="pdf1" horiz-adv-x="832" unicode=""/><glyph d="M765.76 896h-507.52c-49.485 0-89.6-40.115-89.6-89.6v0-716.8c0-49.485 40.115-89.6 89.6-89.6v0h507.52c49.485 0 89.6 40.115 89.6 89.6v716.8c0 49.485-40.115 89.6-89.6 89.6v0zM795.84 89.6c-0.181-16.475-13.578-29.76-30.078-29.76-0.001 0-0.001 0-0.002 0h-507.52c-0.001 0-0.001 0-0.002 0-16.5 0-29.897 13.285-30.078 29.743v716.817c0.181 16.475 13.578 29.76 30.078 29.76 0.001 0 0.001 0 0.002 0h507.52c0.001 0 0.001 0 0.002 0 16.5 0 29.897-13.285 30.078-29.743v-0.017zM698.56 627.2h-373.12c-0.929 0.102-2.007 0.16-3.098 0.16-16.613 0-30.080-13.467-30.080-30.080s13.467-30.080 30.080-30.080c1.091 0 2.169 0.058 3.23 0.171l-0.132-0.011h373.12c0.929-0.102 2.007-0.16 3.098-0.16 16.613 0 30.080 13.467 30.080 30.080s-13.467 30.080-30.080 30.080c-1.091 0-2.169-0.058-3.23-0.171l0.132 0.011zM698.56 477.76h-373.12c-16.436 0-29.76-13.324-29.76-29.76s13.324-29.76 29.76-29.76h373.12c16.436 0 29.76 13.324 29.76 29.76s-13.324 29.76-29.76 29.76v0zM698.56 328.64h-373.12c-0.929 0.102-2.007 0.16-3.098 0.16-16.613 0-30.080-13.467-30.080-30.080s13.467-30.080 30.080-30.080c1.091 0 2.169 0.058 3.23 0.171l-0.132-0.011h373.12c0.929-0.102 2.007-0.16 3.098-0.16 16.613 0 30.080 13.467 30.080 30.080s-13.467 30.080-30.080 30.080c-1.091 0-2.169-0.058-3.23-0.171l0.132 0.011z" data-tags="iconfinder_expand-web5-02_5084622" glyph-name="news_9" unicode=""/><glyph d="M940.259 834.32c-52.965 56.93-127.184 89.323-204.942 89.443-77.821-0.090-152.116-32.465-205.163-89.407l-18.079-19.104-18.079 19.104c-105.26 113.288-282.428 119.794-395.716 14.534-5.020-4.666-9.868-9.512-14.534-14.534-111.661-120.44-111.661-306.573 0-427.013l401.761-423.683c13.9-14.674 37.063-15.302 51.737-1.402 0.48 0.455 0.948 0.922 1.402 1.402l401.615 423.683c111.652 120.427 111.652 306.55-0.002 426.977z" data-tags="heart (2)" glyph-name="favourites_2" unicode=""/><glyph d="M940.259 834.32c-52.965 56.93-127.184 89.323-204.942 89.443-77.821-0.090-152.116-32.465-205.163-89.407l-18.079-19.104-18.079 19.104c-105.26 113.288-282.43 119.794-395.716 14.534-5.020-4.666-9.868-9.512-14.534-14.534-111.661-120.44-111.661-306.573 0-427.013l401.761-423.683c13.9-14.674 37.063-15.302 51.737-1.402 0.48 0.455 0.948 0.922 1.402 1.402l401.615 423.683c111.652 120.427 111.652 306.55-0.002 426.977zM887.304 457.737h-0.036l-375.193-395.723-375.227 395.723c-85.302 92.027-85.302 234.234 0 326.261 77.465 83.96 208.328 89.224 292.288 11.76 4.076-3.761 7.998-7.683 11.76-11.76l44.611-47.064c14.702-14.607 38.437-14.607 53.139 0l44.611 47.028c77.465 83.96 208.328 89.224 292.288 11.76 4.076-3.761 7.998-7.683 11.76-11.76 86.044-92.173 86.675-234.639 0-326.224z" data-tags="heart (1)" glyph-name="favourites_2_outline" unicode=""/><glyph d="M133.266 650.712l15.006-58.954c80.428 20.472 165.448 20.472 245.874 0l15.006 58.954c-90.242 22.97-185.644 22.97-275.886 0zM133.266 550.12l15.006-58.954c80.426 20.472 165.446 20.472 245.872 0l15.006 58.954c-90.24 22.97-185.642 22.97-275.884 0zM133.266 449.524l15.006-58.954c80.426 20.474 165.446 20.474 245.872 0l15.006 58.954c-90.24 22.972-185.642 22.972-275.884 0zM133.266 348.93l15.006-58.954c80.426 20.472 165.446 20.472 245.872 0l15.006 58.954c-90.24 22.972-185.642 22.972-275.884 0zM1007.442 741.862c-78.424 40.146-166.482 61.366-254.652 61.366-83.016 0-165.922-18.806-240.79-54.514-74.868 35.708-157.774 54.514-240.79 54.514-88.172 0-176.23-21.22-254.654-61.366l-16.556-8.476v-640.612l44.278 22.666c69.882 35.774 148.356 54.684 226.932 54.684s157.046-18.91 226.93-54.682l3.106-1.59 14.456-3.614 10.162 5.202c69.882 35.774 148.354 54.682 226.93 54.682s157.046-18.91 226.93-54.684l44.276-22.666v640.614l-16.558 8.476zM481.584 189.82c-66.606 26.996-138.446 41.142-210.374 41.142-71.924-0.002-143.768-14.122-210.374-41.116v505.95c65.606 30.53 137.946 46.598 210.376 46.598 72.434 0 144.762-16.104 210.372-46.64v-505.934zM963.166 189.846c-66.606 26.996-138.448 41.114-210.372 41.114-71.928 0-143.766-14.144-210.374-41.142v505.934c65.61 30.534 137.938 46.64 210.372 46.64 72.43 0 144.77-16.066 210.374-46.598v-505.948zM614.85 650.712l15.008-58.954c80.428 20.472 165.446 20.472 245.874 0l15.006 58.954c-90.242 22.97-185.646 22.97-275.888 0zM614.852 550.12l15.006-58.954c80.428 20.472 165.446 20.472 245.874 0l15.006 58.954c-90.242 22.97-185.646 22.97-275.886 0zM614.852 449.524l15.006-58.954c80.428 20.474 165.446 20.474 245.874 0l15.006 58.954c-90.242 22.972-185.646 22.972-275.886 0zM614.852 348.93l15.006-58.954c80.428 20.472 165.446 20.472 245.874 0l15.006 58.954c-90.242 22.972-185.646 22.972-275.886 0z" data-tags="ebook" glyph-name="news_6" unicode=""/><glyph d="M843.464 202.134c-105.009-13.473-207.759-40.902-305.518-81.536l-7.661-3.205v-79.214l35.768 14.866c107.214 44.607 220.732 72.205 336.455 81.813l30.063 2.446v731.268l-27.902-2.339c-111.902-9.25-221.661-36-325.268-79.286l-49.116-20.393v-97.518l77.107 32.018c74.071 30.964 151.598 52.884 230.92 65.304 9.973 1.563 19.33-5.259 20.893-15.232 1.571-9.982-5.25-19.339-15.232-20.902-76.42-11.955-151.125-33.080-222.5-62.92l-91.187-37.839v-88.429l77.107 32.018c74.071 30.964 151.598 52.884 230.92 65.304 9.973 1.563 19.33-5.259 20.893-15.232 1.571-9.982-5.25-19.339-15.232-20.902-76.42-11.955-151.125-33.080-222.5-62.92l-91.187-37.839v-88.429l77.107 32.018c74.071 30.964 151.598 52.884 230.92 65.304 9.973 1.563 19.33-5.259 20.893-15.232 1.571-9.982-5.25-19.339-15.232-20.902-76.42-11.955-151.125-33.080-222.5-62.92l-91.187-37.839v-88.429l77.107 32.018c74.071 30.964 151.598 52.884 230.92 65.304 9.973 1.563 19.33-5.259 20.893-15.232 1.571-9.982-5.25-19.339-15.232-20.902-76.42-11.955-151.125-33.080-222.5-62.92l-91.187-37.839v-88.571c98.857 40.482 202.58 67.875 308.536 81.5 6.571 1.027 13.187-1.589 17.277-6.848 4.080-5.259 4.982-12.321 2.357-18.437s-8.366-10.321-14.991-10.973zM119.33 866.232l-27.902 2.339v-731.321l32.455-2.759c115.652-9.67 229.071-37.437 336.107-82.286l33.723-14.027v79.304l-5.482 2.304c-98.366 41.179-201.857 68.857-307.643 82.286-10.027 1.277-17.116 10.437-15.848 20.455 1.277 10.027 10.437 17.116 20.455 15.848 105.964-13.509 209.687-40.884 308.518-81.429v88.518l-91.429 37.964c-71.304 29.777-145.937 50.866-222.277 62.813-6.607 0.839-12.232 5.205-14.687 11.402-2.455 6.187-1.348 13.223 2.884 18.357 4.232 5.143 10.92 7.571 17.464 6.357 79.241-12.375 156.696-34.268 230.696-65.187l77.348-32.134v88.429l-91.429 37.964c-71.304 29.777-145.937 50.866-222.277 62.813-6.607 0.839-12.232 5.205-14.687 11.402-2.455 6.187-1.348 13.223 2.884 18.357 4.232 5.143 10.92 7.571 17.464 6.357 79.241-12.375 156.696-34.268 230.696-65.187l77.348-32.134v88.429l-91.429 37.964c-71.304 29.777-145.937 50.866-222.277 62.813-6.607 0.839-12.232 5.205-14.687 11.402-2.455 6.187-1.348 13.223 2.884 18.357 4.232 5.143 10.92 7.571 17.464 6.357 79.241-12.375 156.696-34.268 230.696-65.187l77.348-32.134v88.429l-91.429 37.964c-71.304 29.777-145.937 50.866-222.277 62.813-6.607 0.839-12.232 5.205-14.687 11.402-2.455 6.187-1.348 13.223 2.884 18.357 4.232 5.143 10.92 7.571 17.464 6.357 79.241-12.375 156.696-34.268 230.696-65.187l77.348-32.134v97.518l-49.063 20.375c-103.616 43.295-213.393 70.054-325.321 79.304zM1024 760.464h-54.857v-640c0.036-9.536-7.277-17.5-16.786-18.286l-46.83-3.839c-13.518-1.116-27-2.5-40.429-4.152-4.357-0.527-8.687-1.223-13.018-1.83-9.054-1.205-18.089-2.429-27.098-3.857-5.25-0.839-10.464-1.821-15.696-2.741-8.063-1.411-16.143-2.813-24.187-4.402-5.491-1.098-10.973-2.33-16.571-3.518-7.661-1.625-15.321-3.286-22.929-5.098-5.705-1.357-11.393-2.795-17.063-4.241-7.402-1.83-14.768-3.804-22.125-5.857-5.723-1.571-11.446-3.232-17.152-4.911-7.313-2.161-14.518-4.357-21.741-6.661-5.652-1.83-11.312-3.661-16.946-5.482-7.232-2.437-14.429-4.955-21.598-7.554-5.482-1.991-10.973-3.991-16.58-6.089-2.509-0.955-5-1.973-7.5-2.946h419.107zM0 760.464v-731.429h419.402c-2.25 0.884-4.5 1.83-6.768 2.67-5.232 1.991-10.509 3.893-15.777 5.812-7.429 2.696-14.848 5.321-22.33 7.83-5.411 1.83-10.839 3.607-16.277 5.339-7.42 2.438-14.866 4.732-22.321 6.875-5.491 1.607-10.973 3.223-16.455 4.759-7.518 2.080-15.054 4.054-22.607 5.991-5.482 1.411-10.973 2.821-16.58 4.134-7.661 1.83-15.366 3.509-23.063 5.161-5.482 1.187-10.973 2.393-16.455 3.491-7.973 1.571-15.982 2.982-23.991 4.384-5.25 0.92-10.5 1.83-15.759 2.768-8.839 1.402-17.705 2.589-26.571 3.786-4.482 0.598-8.929 1.313-13.402 1.821-13.411 1.625-26.821 3.009-40.232 4.152l-49.223 4.17c-9.491 0.813-16.768 8.768-16.732 18.286v640z" data-tags="book" glyph-name="news_5" unicode=""/><glyph d="M204.8 550.4c56.554 0 102.4-45.846 102.4-102.4s-45.846-102.4-102.4-102.4c-56.554 0-102.4 45.846-102.4 102.4s45.846 102.4 102.4 102.4zM512 550.4c56.554 0 102.4-45.846 102.4-102.4s-45.846-102.4-102.4-102.4c-56.554 0-102.4 45.846-102.4 102.4s45.846 102.4 102.4 102.4zM819.2 550.4c56.554 0 102.4-45.846 102.4-102.4s-45.846-102.4-102.4-102.4c-56.554 0-102.4 45.846-102.4 102.4s45.846 102.4 102.4 102.4z" data-tags="More" glyph-name="more_h" unicode=""/><glyph d="M102.4 243.2c56.554 0 102.4-45.846 102.4-102.4s-45.846-102.4-102.4-102.4c-56.554 0-102.4 45.846-102.4 102.4s45.846 102.4 102.4 102.4zM972.8 192c28.277 0 51.2-22.923 51.2-51.2s-22.923-51.2-51.2-51.2h-614.4c-28.277 0-51.2 22.923-51.2 51.2s22.923 51.2 51.2 51.2h614.4zM102.4 550.4c56.554 0 102.4-45.846 102.4-102.4s-45.846-102.4-102.4-102.4c-56.554 0-102.4 45.846-102.4 102.4s45.846 102.4 102.4 102.4zM972.8 499.2c28.277 0 51.2-22.923 51.2-51.2s-22.923-51.2-51.2-51.2h-614.4c-28.277 0-51.2 22.923-51.2 51.2s22.923 51.2 51.2 51.2h614.4zM102.4 857.6c56.554 0 102.4-45.846 102.4-102.4s-45.846-102.4-102.4-102.4c-56.554 0-102.4 45.846-102.4 102.4s45.846 102.4 102.4 102.4zM972.8 806.4c28.277 0 51.2-22.923 51.2-51.2s-22.923-51.2-51.2-51.2h-614.4c-28.277 0-51.2 22.923-51.2 51.2s22.923 51.2 51.2 51.2h614.4z" data-tags="List" glyph-name="list" unicode=""/><glyph d="M400.729 947.875c-58.917-83.402-93.529-185.196-93.529-295.075 0-282.77 229.23-512 512-512 38.213 0 75.447 4.186 111.271 12.125-92.704-131.231-245.58-216.925-418.471-216.925-282.77 0-512 229.23-512 512 0 244.557 171.462 449.067 400.729 499.875zM623.419 622.339c4.824-16.781 1.776-34.844-8.287-49.112l-55.885-79.238 62.83 18.063c16.985 4.883 34.713-4.928 39.596-21.913s-4.928-34.713-21.913-39.596l-80.313-23.089c-16.781-4.824-34.844-1.776-49.112 8.287-25.996 18.335-32.208 54.272-13.873 80.269l55.885 79.238-62.83-18.063c-16.985-4.883-34.713 4.928-39.596 21.913s4.928 34.713 21.913 39.596l80.313 23.089c30.573 8.789 62.483-8.87 71.272-39.443zM892.309 847.632c35.346 0 64-28.654 64-64 0-18.994-8.437-37.007-23.028-49.166l-134.721-112.267h100.853c21.208 0 38.4-17.192 38.4-38.4s-17.192-38.4-38.4-38.4h-136.207c-18.994 0-37.007 8.437-49.166 23.028-22.628 27.154-18.959 67.51 8.194 90.138l134.721 112.267h-100.504c-21.208 0-38.4 17.192-38.4 38.4s17.192 38.4 38.4 38.4h135.859z" data-tags="Sleep Mode" glyph-name="dark_mode" unicode=""/><glyph d="M952.889 960c39.274 0 71.111-31.838 71.111-71.111v-881.778c0-39.274-31.838-71.111-71.111-71.111h-881.778c-39.274 0-71.111 31.838-71.111 71.111v881.778c0 39.274 31.838 71.111 71.111 71.111h881.778zM896 618.667h-768v-554.667h768v554.667zM469.333 832h-341.333v-85.333h341.333v85.333z" data-tags="For You" glyph-name="window" unicode=""/><glyph d="M804.571 502.857h-585.143v-365.714c0-20.198 16.374-36.571 36.571-36.571h512c20.198 0 36.571 16.374 36.571 36.571v365.714zM877.714 502.857v-402.286c0-40.396-32.747-73.143-73.143-73.143h-585.143c-40.396 0-73.143 32.747-73.143 73.143v402.286h-71.144c-20.198 0-36.571 16.374-36.571 36.571 0 11.65 5.55 22.602 14.944 29.491l437.21 320.62c12.704 9.316 29.946 9.45 42.793 0.333l234.484-166.408v35.392c0 20.198 16.374 36.571 36.571 36.571h36.571c20.198 0 36.571-16.374 36.571-36.571v-113.253l107.585-76.351c16.471-11.689 20.348-34.518 8.659-50.99-6.858-9.664-17.974-15.406-29.824-15.406h-86.42zM621.714 429.714v-292.571h146.286v292.571h-146.286zM804.571 576l-270.353 223.685c-12.847 9.117-30.089 8.983-42.793-0.333l-271.997-223.352v-73.143h585.143v73.143z" data-tags="house_alt" glyph-name="home_2" unicode=""/><glyph d="M308.239 893.681c-7.319 27.313 8.89 55.388 36.204 62.707s55.388-8.89 62.707-36.204c0.368-1.372 0.676-2.746 0.926-4.119 146.712 14.149 286.448-79.267 325.86-226.355l86.135-321.46c3.659-13.657 17.697-21.761 31.353-18.102 40.97 10.978 83.082-13.336 94.060-54.306s-13.336-83.082-54.306-94.060l-642.92-172.27c-40.97-10.978-83.082 13.336-94.060 54.306s13.336 83.082 54.306 94.060c13.657 3.659 21.761 17.697 18.102 31.353l-86.135 321.46c-39.412 147.089 34.894 297.857 169.025 358.959-0.593 1.772-1.012 3.116-1.257 4.031zM385.149 13.184l197.822 53.006c14.637-54.627-17.781-110.777-72.408-125.414s-110.777 17.781-125.414 72.408z" data-tags="Notifications" glyph-name="noti_2" unicode=""/><glyph d="M460.8 255.596v602.004c0 28.277 22.923 51.2 51.2 51.2s51.2-22.923 51.2-51.2v-601.398l180.86 186.341c19.694 20.291 52.109 20.775 72.4 1.081s20.775-52.109 1.081-72.4l-250.492-258.084c-0.712-0.727-0.712-0.727-1.436-1.441-12.719-12.428-28.652-19.546-45.053-21.388-2.783-0.468-5.643-0.712-8.56-0.712-2.839 0-5.624 0.231-8.338 0.675-17.103 1.844-33.693 9.416-46.654 22.681l-250.428 256.291c-19.762 20.225-19.387 52.641 0.838 72.403s52.641 19.387 72.403-0.838l180.98-185.216zM153.6 89.6h716.8c28.277 0 51.2-22.923 51.2-51.2s-22.923-51.2-51.2-51.2h-716.8c-28.277 0-51.2 22.923-51.2 51.2s22.923 51.2 51.2 51.2z" data-tags="Download" glyph-name="download" unicode=""/><glyph d="M814.954 652.8c28.277 0 51.2-22.923 51.2-51.2 0-0.918-0.025-1.836-0.074-2.753l-27.717-514.753c-2.926-54.336-47.837-96.894-102.252-96.894h-451.051c-54.415 0-99.326 42.558-102.252 96.894l-27.717 514.753c-1.52 28.236 20.137 52.358 48.373 53.879l1.376 0.056 610.115 0.019zM512 908.8c28.277 0 51.2-22.923 51.2-51.2v-51.2h307.2c28.277 0 51.2-22.923 51.2-51.2s-22.923-51.2-51.2-51.2h-716.8c-28.277 0-51.2 22.923-51.2 51.2s22.923 51.2 51.2 51.2h307.2v51.2c0 28.277 22.923 51.2 51.2 51.2zM510.585 499.2c-14.138 0-25.6-10.029-25.6-22.4v-313.6c0-12.371 11.462-22.4 25.6-22.4s25.6 10.029 25.6 22.4v313.6c0 12.371-11.462 22.4-25.6 22.4zM689.664 499.2c-14.138 0-25.6-10.029-25.6-22.4l-25.479-313.6c0-12.371 11.462-22.4 25.6-22.4s25.6 10.029 25.6 22.4l25.479 313.6c0 12.371-11.462 22.4-25.6 22.4zM331.264 499.2c-14.138 0-25.6-10.029-25.6-22.4l25.721-313.6c0-12.371 11.462-22.4 25.6-22.4s25.6 10.029 25.6 22.4l-25.721 313.6c0 12.371-11.462 22.4-25.6 22.4z" data-tags="Trash" glyph-name="trash" unicode=""/><glyph d="M512 960c282.77 0 512-229.23 512-512s-229.23-512-512-512c-282.77 0-512 229.23-512 512s229.23 512 512 512zM512 857.6v-819.2c226.216 0 409.6 183.384 409.6 409.6s-183.384 409.6-409.6 409.6v0z" data-tags="Night Mode" glyph-name="light_mode" unicode=""/><glyph d="M201.737 847.118l310.215-310.226 310.311 310.226c18.457 18.457 47.499 19.877 67.584 4.259l4.823-4.259c19.995-19.995 19.995-52.413 0-72.408v0l-310.271-310.215 310.271-310.311c19.995-19.995 19.995-52.413 0-72.408s-52.413-19.995-72.408 0l-310.311 310.271-310.215-310.271c-18.457-18.457-47.499-19.877-67.584-4.259l-4.823 4.259c-19.995 19.995-19.995 52.413 0 72.408v0l310.226 310.311-310.226 310.215c-19.995 19.995-19.995 52.413 0 72.408s52.413 19.995 72.408 0z" data-tags="Close" glyph-name="close" unicode=""/><glyph d="M204.8 908.8h601.6c28.277 0 51.2-22.923 51.2-51.2v-845.773c0-28.277-22.923-51.2-51.2-51.2-13.918 0-27.237 5.666-36.889 15.694l-227.022 235.867c-19.609 20.373-52.021 20.993-72.395 1.383-0.47-0.452-0.931-0.913-1.383-1.383l-227.022-235.867c-19.609-20.373-52.021-20.993-72.395-1.383-10.028 9.652-15.694 22.971-15.694 36.889v845.773c0 28.277 22.923 51.2 51.2 51.2z" data-tags="Bookmark" glyph-name="bookmark_3" unicode=""/><glyph d="M266.68 499.2h603.72c28.277 0 51.2-22.923 51.2-51.2s-22.923-51.2-51.2-51.2h-603.113l229.173-222.431c20.291-19.694 20.775-52.109 1.081-72.4s-52.109-20.775-72.4-1.081l-297.998 289.231c-0.764 0.749-0.764 0.749-1.516 1.51-13.274 13.585-20.788 30.657-22.578 48.19-0.428 2.664-0.65 5.396-0.65 8.18 0 2.706 0.21 5.363 0.614 7.956 1.783 18.274 9.774 36.042 23.934 49.878l295.927 289.158c20.225 19.762 52.641 19.387 72.403-0.838s19.387-52.641-0.838-72.403l-227.761-222.551z" data-tags="Back" glyph-name="back_2" unicode=""/><glyph d="M75.856 219.14c104.031 84.306 249.412 126.46 436.144 126.46s332.113-42.153 436.144-126.46c47.984-38.886 75.856-97.35 75.856-159.112v-21.629c0-56.554-45.846-102.4-102.4-102.4h-819.2c-56.554 0-102.4 45.846-102.4 102.4v21.629c0 61.762 27.873 120.225 75.856 159.111zM512 396.8c-88.525 0-281.6 126.077-281.6 281.6s126.077 281.6 281.6 281.6c155.523 0 281.6-126.077 281.6-281.6s-193.075-281.6-281.6-281.6z" data-tags="Profile" glyph-name="user_3" unicode=""/><glyph d="M1023.746 857.319c0.169-1.693 0.254-3.393 0.254-5.095v-716.289c0-26.304-19.932-48.329-46.105-50.946l-372.437-37.302c-16.015-35.656-51.837-60.487-93.457-60.487-41.64 0-77.476 24.854-93.48 60.537l-372.415 37.252c-26.174 2.617-46.105 24.642-46.105 50.946v716.289c0 28.277 22.923 51.2 51.2 51.2 1.701 0 3.402-0.085 5.095-0.254l455.705-45.571 455.705 45.571c28.137 2.814 53.227-17.715 56.040-45.851zM512 806.4c-14.138 0-25.6-11.462-25.6-25.6v0-716.8c0-14.138 11.462-25.6 25.6-25.6s25.6 11.462 25.6 25.6v0 716.8c0 14.138-11.462 25.6-25.6 25.6zM125.51 286.338c-12.763 0-23.11-10.347-23.11-23.11 0-14.542 11-26.728 25.467-28.211v0l281.867-28.897c0.783-0.080 1.57-0.12 2.357-0.12 12.763 0 23.11 10.347 23.11 23.11 0 14.542-11 26.728-25.467 28.211v0l-281.867 28.897zM898.49 286.338l-2.357-0.12-281.867-28.897c-14.466-1.483-25.467-13.669-25.467-28.211 0-12.763 10.347-23.11 23.11-23.11 0.787 0 1.574 0.040 2.357 0.12l281.867 28.897c14.466 1.483 25.467 13.669 25.467 28.211 0 12.763-10.347 23.11-23.11 23.11zM125.51 439.938c-12.763 0-23.11-10.347-23.11-23.11 0-14.542 11-26.728 25.467-28.211v0l281.867-28.897c0.783-0.080 1.57-0.12 2.357-0.12 12.763 0 23.11 10.347 23.11 23.11 0 14.542-11 26.728-25.467 28.211v0l-281.867 28.897zM898.49 439.938l-2.357-0.12-281.867-28.897c-14.466-1.483-25.467-13.669-25.467-28.211 0-12.763 10.347-23.11 23.11-23.11 0.787 0 1.574 0.040 2.357 0.12l281.867 28.897c14.466 1.483 25.467 13.669 25.467 28.211 0 12.763-10.347 23.11-23.11 23.11zM125.51 593.538c-12.763 0-23.11-10.347-23.11-23.11 0-14.542 11-26.728 25.467-28.211v0l281.867-28.897c0.783-0.080 1.57-0.12 2.357-0.12 12.763 0 23.11 10.347 23.11 23.11 0 14.542-11 26.728-25.467 28.211v0l-281.867 28.897zM898.49 593.538l-2.357-0.12-281.867-28.897c-14.466-1.483-25.467-13.669-25.467-28.211 0-12.763 10.347-23.11 23.11-23.11 0.787 0 1.574 0.040 2.357 0.12l281.867 28.897c14.466 1.483 25.467 13.669 25.467 28.211 0 12.763-10.347 23.11-23.11 23.11zM125.51 747.138c-12.763 0-23.11-10.347-23.11-23.11 0-14.542 11-26.728 25.467-28.211v0l281.867-28.897c0.783-0.080 1.57-0.12 2.357-0.12 12.763 0 23.11 10.347 23.11 23.11 0 14.542-11 26.728-25.467 28.211v0l-281.867 28.897zM898.49 747.138l-2.357-0.12-281.867-28.897c-14.466-1.483-25.467-13.669-25.467-28.211 0-12.763 10.347-23.11 23.11-23.11 0.787 0 1.574 0.040 2.357 0.12l281.867 28.897c14.466 1.483 25.467 13.669 25.467 28.211 0 12.763-10.347 23.11-23.11 23.11z" data-tags="Books" glyph-name="news_8" unicode=""/><glyph d="M435.2 243.2c155.523 0 281.6 126.077 281.6 281.6s-126.077 281.6-281.6 281.6c-155.523 0-281.6-126.077-281.6-281.6s126.077-281.6 281.6-281.6zM740.064 291.286c2.362-1.667 4.614-3.557 6.728-5.671l217.223-217.223c19.995-19.995 19.995-52.413 0-72.408s-52.413-19.995-72.408 0l-217.223 217.223c-2.114 2.114-4.004 4.366-5.671 6.728-64.704-49.635-145.664-79.136-233.514-79.136-212.077 0-384 171.923-384 384s171.923 384 384 384c212.077 0 384-171.923 384-384 0-87.85-29.501-168.81-79.136-233.514v0z" data-tags="Search" glyph-name="search_3" unicode=""/><glyph d="M640.613-12.8v182.129c0 71.848-57.582 130.092-128.613 130.092s-128.613-58.244-128.613-130.092v-182.129c0-28.277-22.923-51.2-51.2-51.2h-178.391c-26.585 0-48.792 20.489-51.229 47.267l-51.15 562.095c-1.522 16.723 5.029 33.161 17.591 44.141l409.354 357.831c19.318 16.887 47.958 16.887 67.276 0l409.354-357.831c12.562-10.981 19.112-27.419 17.591-44.141l-51.15-562.095c-2.437-26.778-24.643-47.267-51.229-47.267h-178.391c-28.277 0-51.2 22.923-51.2 51.2z" data-tags="Home" glyph-name="news_7" unicode=""/><glyph d="M252.070 53.5h520.285c89.571 0 134.146 44.571 134.146 132.857v523.286c0 88.285-44.575 132.857-134.146 132.857h-520.285c-89.143 0-134.572-44.142-134.572-132.857v-523.286c0-88.715 45.429-132.857 134.572-132.857zM253.356 122.5c-42.856 0-66.856 22.715-66.856 67.286v516.429c0 44.571 24 67.286 66.856 67.286h517.714c42.428 0 66.428-22.715 66.428-67.286v-516.429c0-44.571-24-67.286-66.428-67.286zM646.784 342.356c18.858 0 31.715 14.144 31.715 34.288v201.856c0 25.713-14.142 35.571-36.001 35.571h-203.141c-20.144 0-33-12.429-33-31.285 0-18.858 13.286-31.715 33.858-31.715h78l63.428 6.857-66.856-62.142-158.142-157.716c-6.001-5.998-10.288-14.57-10.288-23.142 0-19.284 12.857-31.715 31.715-31.715 10.286 0 18.428 3.858 24.43 9.858l157.712 157.714 61.716 66-6.429-66.856v-74.143c0-20.571 12.429-33.43 31.285-33.43z" data-tags="arrow_up_right_square" glyph-name="outlink" unicode=""/><glyph d="M143.426 510.142c22.287 0 39 17.143 39 39.857v36.001l-8.998 149.572 113.143-118.715 131.571-132.857c7.285-7.715 16.713-11.143 27.429-11.143 24 0 42.428 15.857 42.428 39.857 0 11.571-4.286 21.857-12.001 29.572l-131.999 131.999-119.142 112.715 150-8.572h35.999c22.715 0 40.287 15.857 40.287 39.002 0 23.142-17.573 39.428-40.287 39.428h-238.285c-43.714 0-68.999-25.285-68.999-69.001v-237.857c0-22.285 16.713-39.857 39.856-39.857zM613.14 39.142h238.287c43.717 0 69.003 25.285 69.003 69.001v237.857c0 22.285-16.72 39.857-39.856 39.857-22.29 0-38.576-17.143-38.576-39.857v-36.001l8.571-149.572-113.143 118.715-131.571 132.857c-7.285 7.715-16.715 11.143-27.429 11.143-24 0-42-15.857-42-39.856 0-11.573 3.858-21.859 11.571-29.573l132.429-131.999 118.715-112.715-150 8.572h-36.001c-22.715 0-39.856-15.857-40.285-39 0-23.142 17.571-39.429 40.285-39.429z" data-tags="arrow_up_left_arrow_down_right" glyph-name="full_screen" unicode=""/><glyph d="M284.429-11.429h455.142c88.715 0 132.857 44.571 132.857 134.144v650.141c0 89.143-44.142 134.572-132.857 134.572h-455.142c-88.285 0-132.857-45.429-132.857-134.572v-650.141c0-89.573 44.571-134.144 132.857-134.144zM287.857 57.573c-44.144 0-67.286 23.57-67.286 66.428v647.57c0 42.428 23.142 66.858 67.714 66.858h447.857c44.571 0 67.286-24 67.286-66.858v-647.57c0-42.858-22.715-66.428-66.856-66.428zM350 659.286h324.857c15.002 0 26.573 11.999 26.573 27.001 0 14.572-11.571 25.713-26.573 25.713h-324.857c-15.857 0-27.001-11.141-27.001-25.713 0-15.002 11.143-27.001 27.001-27.001zM350 509.714h324.857c15.002 0 26.573 12.001 26.573 27.001 0 14.572-11.571 25.713-26.573 25.713h-324.857c-15.857 0-27.001-11.141-27.001-25.713 0-15 11.143-27.001 27.001-27.001zM350 360.143h153.858c15 0 26.571 11.573 26.571 26.143 0 15-11.571 26.573-26.571 26.573h-153.858c-15.857 0-27.001-11.573-27.001-26.573 0-14.57 11.143-26.143 27.001-26.143z" data-tags="doc_plaintext" glyph-name="news_2" unicode=""/><glyph d="M11.427 451.215c0-20.571 16.285-33 36.429-33 12.429 0 22.285 6 30.857 14.572l418.286 380.999c4.714 4.714 9.858 6.429 15.428 6.429 5.144 0 9.858-1.715 15-6.429l417.861-380.999c8.997-8.572 18.853-14.572 30.852-14.572 20.144 0 36.434 12.429 36.434 33 0 12.857-4.714 20.999-12.859 28.284l-148.29 135.002v253.285c0 18.858-11.999 30.857-30.852 30.857h-56.146c-18.428 0-31.287-11.999-31.287-30.857v-145.713l-169.713 155.141c-15 14.144-33.428 21.001-51.429 21.001s-35.999-6.857-51.429-21.001l-436.286-397.714c-7.713-7.285-12.857-15.428-12.857-28.284zM133.998 91.643c0-59.571 36.001-94.285 96.43-94.285h173.57v304.713c0 19.716 13.286 32.572 33.002 32.572h151.285c19.714 0 32.572-12.857 32.572-32.572v-304.713h173.138c60.431 0 96.005 34.714 96.005 94.285v313.715l-363.858 327.857c-4.716 4.286-9.858 6.427-15 6.427-4.716 0-9.43-2.141-14.572-6.857l-362.573-329.571z" data-tags="house_fill" glyph-name="home_3" unicode=""/><glyph d="M146.286 630.857c0 20.198 16.302 36.571 36.522 36.571h658.385c20.17 0 36.522-16.233 36.522-36.571 0-20.198-16.302-36.571-36.522-36.571h-658.385c-20.17 0-36.522 16.233-36.522 36.571zM146.286 448c0 20.198 16.302 36.571 36.522 36.571h658.385c20.17 0 36.522-16.233 36.522-36.571 0-20.198-16.302-36.571-36.522-36.571h-658.385c-20.17 0-36.522 16.233-36.522 36.571zM146.286 265.143c0 20.198 16.302 36.571 36.522 36.571h658.385c20.17 0 36.522-16.233 36.522-36.571 0-20.198-16.302-36.571-36.522-36.571h-658.385c-20.17 0-36.522 16.233-36.522 36.571z" data-tags="bars" glyph-name="menu" unicode=""/><glyph d="M276.613 839.881c74.978 24.118 156.11 15.439 223.995-23.080v0l11.238-6.744 11.44 6.782c64.361 36.439 140.709 46.176 212.556 26.416v0l11.336-3.376c156.703-50.451 226.864-221.554 174.152-385.272-26.429-76.158-69.773-145.208-126.987-202.122-77.854-75.61-163.679-142.379-255.812-199.034v0l-9.781-6.079c-9.932-6.173-22.484-6.278-32.518-0.273v0l-10.477 6.273c-92.26 56.733-178.085 123.503-256.206 199.376-56.947 56.651-100.291 125.701-126.943 202.526-52.521 163.15 17.352 334.171 174.007 384.607zM485.318 752.884c-55.641 38.032-125.497 48.251-189.573 27.64-121.347-39.068-176.361-173.72-133.95-305.489 23.326-67.217 61.567-128.138 111.52-177.834 74.578-72.428 156.786-136.384 244.831-190.528l-6.092 3.84 19.962 12.554c69.693 44.998 135.334 96.061 196.032 152.469v0l22.528 21.402c50.22 49.959 88.462 110.88 111.564 177.43 42.593 132.311-12.661 267.057-134.073 306.146-67.278 21.584-140.718 9.221-197.466-33.261-10.895-8.156-25.825-8.314-36.89-0.389v0zM677.131 683.36c56.381-17.996 96.364-68.474 101.353-127.778 1.444-17.159-11.308-32.239-28.482-33.682s-32.266 11.299-33.709 28.458c-2.882 34.258-25.886 63.3-58.153 73.599-16.417 5.24-25.474 22.785-20.23 39.189s22.804 25.453 39.221 20.213z" data-tags="Heart" glyph-name="heart_outline" unicode=""/><glyph d="M400.409 874.667c39.349 0 76.402-18.551 99.989-50.042v0l37.621-50.103c11.979-15.926 30.72-25.31 50.57-25.349v0h116.672c161.323 0 233.405-84.542 233.405-257.251v0l-1.129-204.841c0-164.83-100.784-265.748-265.396-265.748v0h-321.036c-164.929 0-265.773 100.859-265.773 265.748v0 321.838c0 172.929 73.81 265.748 232.653 265.748v0zM400.409 812.737h-82.423c-121.194 0-170.806-62.389-170.806-203.819v0-321.838c0-130.67 73.137-203.819 203.925-203.819v0h321.036c130.455 0 203.549 73.191 203.549 203.989v0l1.129 204.841c0 140.316-46.753 195.151-171.558 195.151v0h-116.733c-39.292 0.078-76.275 18.594-99.927 50.042v0l-37.658 50.152c-11.929 15.927-30.651 25.3-50.533 25.3v0zM709.025 370.429c17.079 0 30.924-13.863 30.924-30.965 0-15.676-11.634-28.632-26.728-30.682l-4.196-0.283h-395.555c-17.079 0-30.924 13.863-30.924 30.965 0 15.676 11.634 28.632 26.728 30.682l4.196 0.283h395.555z" data-tags="Folder" glyph-name="folder_oultine" unicode=""/><glyph d="M639.388 874.667c130.666 0 213.945-61.228 213.945-181.66v0-600.46c0-18.888-7.318-37.002-20.345-50.358s-30.694-20.855-49.594-20.855c-11.276 0.183-22.359 3.024-33.045 8.656v0l-239.459 133.7-238.489-133.98c-28.724-15.305-63.529-8.245-85.338 17.329v0l-4.183 5.36-3.996 6.593c-5.214 10.206-8.027 21.521-8.219 33.555v0 592.921c0 125.229 81.457 189.199 213.945 189.199v0zM639.388 812.896h-254.776c-102.19 0-153.698-40.45-153.698-127.428v0l-0.004-592.407c0.031-1.885 0.491-3.737-0.010-3.022v0l1.598-2.653c2.754-3.848 7.922-5.103 11.538-3.184v0l238.388 133.899c17.768 9.842 39.177 9.842 57.031-0.048v0l239.051-133.459c1.81-0.952 3.809-1.464 5.365-1.494 2.444 0 4.787 0.995 6.515 2.767s2.699 4.175 2.699 6.68v0 600.46c0 81.057-52.818 119.889-153.698 119.889v0zM657.403 605.157c16.637 0 30.124-13.828 30.124-30.885 0-15.636-11.333-28.558-26.036-30.603l-4.088-0.282h-293.011c-16.637 0-30.124 13.828-30.124 30.885 0 15.636 11.333 28.558 26.036 30.603l4.088 0.282h293.011z" data-tags="Bookmark" glyph-name="bookmark_5_outline" unicode=""/><glyph d="M671.258 874.667c14.954 0 27.313-11.199 29.269-25.728l0.27-4.039 0.002-33.647c121.305-8.318 195.584-86.725 195.2-213.313v0-362.182c0-134.179-83.399-214.424-217.443-214.424v0h-333.115c-133.884 0-217.44 81.612-217.44 217.427v0 359.18c0 126.542 74.518 204.971 195.56 213.309l0.004 33.65c0 16.44 13.225 29.767 29.538 29.767 14.954 0 27.313-11.199 29.269-25.728l0.27-4.039-0.006-32.91h259.072l0.013 32.91c0 16.44 13.225 29.767 29.538 29.767zM836.907 521.259h-649.856l0.026-282.499c0-99.204 53.101-154.27 148.666-157.719l9.698-0.173h333.115c102.013 0 158.366 54.222 158.366 154.889v0l-0.015 285.501zM687.312 271.53c16.314 0 29.538-13.327 29.538-29.767 0-15.070-11.112-27.525-25.53-29.496l-4.008-0.272c-16.678 0-29.903 13.327-29.903 29.767 0 15.070 11.112 27.525 25.53 29.496l4.373 0.272zM512.545 271.53c16.314 0 29.538-13.327 29.538-29.767 0-15.070-11.112-27.525-25.53-29.496l-4.008-0.272c-16.678 0-29.903 13.327-29.903 29.767 0 15.070 11.112 27.525 25.53 29.496l4.373 0.272zM337.413 271.53c16.314 0 29.538-13.327 29.538-29.767 0-15.070-11.112-27.525-25.53-29.496l-4.373-0.272c-16.314 0-29.538 13.327-29.538 29.767 0 15.070 11.112 27.525 25.53 29.496l4.373 0.272zM687.312 425.786c16.314 0 29.538-13.327 29.538-29.767 0-15.070-11.112-27.525-25.53-29.496l-4.008-0.272c-16.678 0-29.903 13.327-29.903 29.767 0 15.070 11.112 27.525 25.53 29.496l4.373 0.272zM512.545 425.786c16.314 0 29.538-13.327 29.538-29.767 0-15.070-11.112-27.525-25.53-29.496l-4.008-0.272c-16.678 0-29.903 13.327-29.903 29.767 0 15.070 11.112 27.525 25.53 29.496l4.373 0.272zM337.413 425.786c16.314 0 29.538-13.327 29.538-29.767 0-15.070-11.112-27.525-25.53-29.496l-4.373-0.272c-16.314 0-29.538 13.327-29.538 29.767 0 15.070 11.112 27.525 25.53 29.496l4.373 0.272zM641.707 752.469h-259.072l0.006-38.181c0-16.44-13.225-29.767-29.538-29.767-14.954 0-27.313 11.199-29.269 25.728l-0.27 4.039-0.042 37.276c-88.049-7.388-136.445-60.646-136.445-153.625v0l-0.026-17.118h649.856l0.015 17.21c0.282 93.052-47.866 146.199-136.124 153.543l-0.001-37.285c0-16.44-13.225-29.767-29.538-29.767-14.954 0-27.313 11.199-29.269 25.728l-0.27 4.039-0.013 38.181z" data-tags="Calendar" glyph-name="calendar_outline" unicode=""/><glyph d="M419.416 327.642c61.601 5.434 123.558 5.434 185.158 0v0l19.668-1.664c26.903-2.652 53.615-6.804 79.901-12.416 67.001-13.802 115.655-38.287 137.19-83.705 15.999-33.79 15.999-73.018-0.007-106.824-21.59-45.533-70.871-70.223-136.684-83.206v0l-19.94-4.14c-26.651-5.115-53.527-8.606-80.223-10.433-50.095-4.265-100.423-5.042-148.971-2.372-5.352 0-8.943 0.018-12.108 0.092v0l-6.155 0.231c-7.483 0.382-14.339 1.167-17.216 2.009-33.776 2.295-67.327 7.184-99.513 14.446v0l-10.918 2.278c-60.947 13.542-106.082 37.973-126.96 81.143-7.907 16.751-11.997 35.062-11.973 53.442-0.069 18.514 4.055 36.802 12.256 53.881 21.744 43.672 72.829 69.953 136.685 83.106 33.084 7.090 66.625 11.827 99.808 14.131zM599.193 266.112c-58.020 5.118-116.375 5.118-174.96-0.045-30.862-2.147-61.534-6.479-92.027-13.013-47.226-9.729-83.333-28.304-94.075-49.87-3.955-8.241-5.993-17.278-5.959-26.585-0.011-9.36 2.053-18.604 5.919-26.796 11.047-22.841 45.119-39.911 95.041-49.695v0l15.041-3.184c25.19-4.993 51.134-8.436 79.966-10.613 3.641-0.731 7.57-1.181 12.232-1.419v0l16.794-0.288c47.368-2.562 94.855-1.828 142.626 2.235 30.788 2.11 61.373 6.55 92.243 13.438v0l9.599 2.033c43.841 9.941 74.174 26.208 84.158 47.263 8.053 17.007 8.053 36.751 0.007 53.743-10.685 22.534-44.459 39.53-94.226 49.783-30.275 6.463-60.962 10.797-91.837 12.97v0zM512.183 874.667c125.185 0 226.668-101.915 226.668-227.634s-101.483-227.634-226.668-227.634c-125.185 0-226.668 101.915-226.668 227.634s101.483 227.634 226.668 227.634zM512.183 812.899c-91.217 0-165.163-74.261-165.163-165.867s73.946-165.867 165.163-165.867c91.217 0 165.163 74.261 165.163 165.867s-73.946 165.867-165.163 165.867z" data-tags="Profile" glyph-name="user_2_outline" unicode=""/><glyph d="M513.229 874.665l10.887-0.2c195.238-6.442 351.213-167.562 350.549-364.713v0l-0.008-4.366c-2.221-117.601-61.063-233.396-158.69-336.738-48.161-50.166-101.943-94.579-160.274-132.352l0.425 0.313-2.056-1.742c-23.318-16.754-54.218-17.951-78.62-3.59l-5.509 3.59-2.574 2.021-17.64 11.875c-73.265 50.507-138.516 111.787-193.423 181.601v0l-13.51 17.63c-57.524 75.389-90.183 166.893-93.452 262.885v0l0.197 12.156c6.42 195.84 167.046 352.297 363.698 351.631v0zM513.009 809.919l-10.249-0.139c-159.92-4.875-288.335-136.171-288.883-297.777v0l0.814-15.233c5.543-75.968 33.081-148.792 79.553-209.699 57.694-77.283 128.495-143.78 209.165-196.449v0l3.508-2.648c2.916-2.53 7.242-2.53 10.159 0v0l3.609 2.713c54.152 35.067 104.080 76.297 148.61 122.68 87.332 92.446 138.955 194.036 140.823 292.631v0l-0.138 14.144c-4.86 160.414-135.754 289.226-296.971 289.777v0zM511.997 644.212c76.305 0 138.162-62.048 138.162-138.588s-61.857-138.588-138.162-138.588c-76.305 0-138.162 62.048-138.162 138.588s61.857 138.588 138.162 138.588zM511.997 579.468c-40.658 0-73.618-33.062-73.618-73.845s32.96-73.845 73.618-73.845c40.658 0 73.618 33.062 73.618 73.845s-32.96 73.845-73.618 73.845z" data-tags="Location" glyph-name="location_outline" unicode=""/><glyph d="M491.063 849.92c16.683 5.547 34.176 4.267 49.536-3.413 12.373-5.973 22.613-16.213 28.971-29.013v0l96.469-193.707c0.427-0.427 0.853-0.853 1.237-0.853v0l215.936-31.147c16.64-2.133 32-11.093 42.667-24.747 10.197-13.653 14.507-30.72 11.947-47.787-2.176-14.080-9.003-26.88-18.773-36.267v0l-156.587-151.467c-0.427-0.427-0.427-0.427 0-0.853v0l37.547-213.76c5.547-34.56-18.347-66.987-53.333-72.96-13.696-2.091-27.776 0-40.533 6.827v0l-192.853 100.693c-0.469 0-0.896 0-1.707-0.427v0l-194.176-101.547c-31.104-15.787-69.504-3.84-86.144 27.307-6.869 12.373-8.96 26.453-6.869 40.533v0l38.016 212.907c0 0.853-0.469 1.28-0.469 1.28v0l-157.867 151.893c-25.173 24.747-25.173 65.28 0.896 91.307 9.771 8.96 21.717 14.549 35.413 17.067v0l215.467 31.147c0.853 0 1.707 0.427 1.707 1.28v0l96.384 193.28c7.723 15.36 20.949 26.88 37.12 32.427zM512.013 791.040h-0.853c-0.469-0.427-0.853-0.427-1.28-1.28v0l-96.469-193.237c-8.917-18.816-26.837-31.616-48.171-35.413v0l-214.613-30.763-2.603-0.853c-0.384-0.384-0.384-1.28-0.384-1.707v0l157.867-151.467c14.891-14.464 21.76-35.797 18.347-56.747v0l-37.547-212.48v-0.853c0.384-1.28 1.707-1.707 2.517-1.28v0l193.323 101.12c19.2 10.24 41.813 10.24 60.544 0.427v0l192-100.267c0.896-0.384 1.707-0.853 2.133-0.384v0h0.896l0.853 0.811-37.589 212.523c-4.224 21.333 3.029 42.667 18.389 57.131v0l156.587 151.893 0.427 0.896-0.427 0.384c-0.469 0-0.896 0.427-1.707 0.427v0l-215.936 31.189c-20.907 3.413-39.253 16.597-48.171 35.413v0l-96.427 192.811c0 0.853-0.427 1.28-1.323 1.28v0l-0.384 0.427z" data-tags="Star" glyph-name="star_outline" unicode=""/><glyph d="M623.273 119.867c12.654-10.305 14.66-29.043 4.479-41.853-7.526-9.47-16.222-17.948-25.439-24.896-31.045-24.36-70.516-35.406-109.714-30.737-39.233 4.673-75.021 24.712-99.444 55.743-10.12 12.858-8.027 31.586 4.676 41.831s31.204 8.125 41.324-4.733c14.729-18.714 36.437-30.869 60.317-33.714 23.915-2.849 47.972 3.884 67.25 19.003 5.684 4.289 10.792 9.27 15.205 14.821 10.18 12.809 28.691 14.839 41.346 4.534zM219.824 576.011l0.525 25.422c0.375 10.874 0.957 20.968 1.809 30.846 12.787 138.086 144.589 242.388 288.339 242.388v0h3.043c143.673 0 275.513-104.228 288.736-242.576 0.759-8.794 1.085-16.606 1.183-27.592v0l0.038-33.611c0.032-3.062 0.084-5.754 0.162-8.265v0l0.394-8.373 1.901-7.984c6.003-22.235 16.554-43.024 31.003-61.070v0l6.429-7.563 2.633-3.38c17.33-25.899 27.23-56.036 28.645-88.493v0l-0.042-17.208c-1.209-38.44-15.322-75.565-41.181-106.502-34.249-36.348-80.66-58.929-129.984-63.469-127.374-13.831-255.886-13.831-382.906-0.036-49.664 4.778-95.937 27.292-131.684 65.035-26.36 32.137-40.372 72.599-39.498 113.489v0l0.036 10.166c1.523 31.089 11.362 61.198 28.485 87.21v0l2.866 3.687c19.998 21.924 33.671 48.757 39.603 77.684l-0.642-2.598 0.104 22.793zM513.541 815.132h-3.043c-115.126 0-220.021-83.009-229.765-188.221-0.499-5.781-0.897-11.746-1.207-18.023v0l-0.685-19.899-0.278-39.222-0.614-6.050c-8.105-39.524-26.757-76.128-53.978-105.971l2.102 2.437-3.76-6.222c-7.043-12.689-11.586-26.471-13.381-40.071v0l-0.745-8.128-0.007-9.331c-0.576-27.172 8.605-53.684 24.512-73.201 24.539-25.831 57.734-41.982 93.781-45.452 123.204-13.378 247.51-13.378 371.186 0.047 35.657 3.285 68.829 19.424 92.033 43.971 17.56 21.062 26.841 47.659 26.162 75.652v0l0.035 6.973c-0.901 20.121-7.31 39.632-18.561 56.446l0.65-1.082-5.882 6.899c-20.284 25.035-35.018 54.073-43.223 85.201v0l-2.769 11.767-0.55 3.954c-0.415 5.776-0.657 10.91-0.785 17.083v0l-0.116 38.598c-0.080 9.816-0.345 16.423-0.942 23.349-10.084 105.494-115.077 188.498-230.17 188.498v0z" data-tags="Notification" glyph-name="noti_5_outline" unicode=""/><glyph d="M514.473 874.663c177.217-1.309 335.246-111.699 397.209-277.495 61.969-165.813 14.981-352.607-118.094-469.505-133.056-116.88-324.556-139.626-481.358-57.177v0l-1.954 0.684c-0.305 0.178-0.354 0.33-0.42 0.533v0l-29.121 16.48c-5.931 2.427-12.504 2.821-16.517 1.806-30.272-10.884-61.211-19.821-92.626-26.759v0l-5.759-0.693c-34.584-0.767-52.009 21.672-52.009 54.33v0l0.834 6.996c7.853 32.48 17.696 64.448 28.898 94.051 1.737 5.604 1.159 11.667-1.839 17.286v0l-7.843 15.29c-69.324 132.544-64.096 291.651 13.779 419.373 77.864 127.705 216.992 205.396 366.821 204.801zM514.063 815.162l-11.984-0.188c-124.269-3.556-238.682-69.64-303.596-176.105-66.999-109.885-71.496-246.758-11.748-360.997v0l7.719-15.056c10.267-19.213 12.415-41.73 5.391-64.208-10.916-28.994-20.040-58.629-27.321-88.738l4.029 15.697 16.842 4.39c5.781 1.593 11.577 3.27 17.402 5.037l17.584 5.57 17.861 6.135c18.867 5.196 38.927 3.994 58.689-4.152 4.148-1.999 9.295-4.776 15.783-8.443v0l18.019-10.34c0.305-0.083 0.572-0.155 0.777-0.212v0l-0.526 0.070 12.277-6.152c129.089-62.33 282.878-44 393.641 46.941v0l9.395 7.979c114.506 100.586 154.93 261.285 101.618 403.935-53.318 142.666-189.33 237.676-341.851 238.836v0zM324.948 496.658c26.884 0 48.698-21.778 48.698-48.667s-21.814-48.667-48.698-48.667c-26.884 0-48.698 21.778-48.698 48.667s21.814 48.667 48.698 48.667zM514.254 496.658c26.884 0 48.698-21.778 48.698-48.667s-21.814-48.667-48.698-48.667c-26.884 0-48.698 21.778-48.698 48.667s21.814 48.667 48.698 48.667zM703.561 496.658c26.884 0 48.698-21.778 48.698-48.667s-21.814-48.667-48.698-48.667c-26.884 0-48.698 21.778-48.698 48.667s21.814 48.667 48.698 48.667z" data-tags="Chat" glyph-name="comment_outline" unicode=""/><glyph d="M705.079 832c64.595-0.728 126.076-28.072 170.124-75.667s66.818-111.286 63.063-174.316v0l-0.056-266.111c3.811-64.954-18.959-128.644-63.007-176.239s-105.529-74.939-170.485-75.667v0h-386.588c-135.233 0-232.797 109.291-232.797 249.983v0 268.034c0 140.692 97.564 249.983 232.797 249.983v0zM704.357 766.789h-386.227c-97.851 0-168.053-78.642-168.053-184.772v0-268.034c0-106.13 70.202-184.772 168.053-184.772v0h386.227c46.887 0.527 91.514 20.375 123.487 54.922s48.501 80.778 45.678 129.849v0l0.056 269.958c2.766 47.147-13.762 93.378-45.734 127.926s-76.599 54.396-123.487 54.922v0zM769.025 591.43c10.157-12.781 9.214-30.901-1.528-42.545l-3.515-3.287-175.231-141.272c-42.56-33.413-101.365-35.083-145.741-4.86l-6.882 5.037-176.404 141.011c-14.004 11.195-16.347 31.704-5.233 45.81 10.104 12.823 27.851 15.94 41.516 7.99l3.965-2.718 176.181-140.834c19.753-15.508 46.833-16.701 67.455-3.784l5.013 3.523 174.903 141.011c13.958 11.253 34.33 8.979 45.502-5.080z" data-tags="Message" glyph-name="message_oultline" unicode=""/><glyph d="M538.287 874.667c30.251 0.012 59.22-11.973 80.306-33.225s32.495-49.961 31.576-76.755v0l0.362-6.302c0.736-6.206 2.799-12.195 6.142-17.715 6.515-10.885 17.182-18.785 29.648-21.956s25.708-1.354 38.249 5.835v0l6.99 3.537c52.479 24.172 115.419 4.963 144.528-44.535v0l26.162-44.478c0.69-1.172 1.298-2.384 1.822-3.627v0l2.427-4.765c23.399-48.929 6.751-107.129-37.703-136.698v0l-10.977-6.758c-5.739-3.92-10.524-9.041-14.122-15.194-6.498-10.928-8.282-23.943-4.956-36.164s11.488-22.637 23.867-29.65v0l7.123-4.472c21.518-14.746 37.062-36.481 43.842-61.393 7.65-28.106 3.548-58.041-11.605-83.517v0l-28.144-45.934-4.243-6.479c-33.068-46.588-97.271-60.822-146.267-33.113v0l-5.807 2.931c-6.057 2.654-12.594 4.112-18.544 4.276-12.944 0.061-25.376-4.95-34.528-13.917s-14.267-21.147-14.234-35.31v0l-0.346-7.323c-4.738-56.7-53.185-100.632-111.557-100.632v0h-52.708c-61.818 0-111.932 49.098-111.869 107.718v0l-0.362 6.302c-0.736 6.206-2.799 12.195-6.312 18.002-6.372 10.913-16.93 18.88-29.326 22.13s-25.604 1.514-38.388-5.727v0l-7.596-3.717c-24.022-10.585-51.119-12.54-76.509-5.47-28.646 7.977-52.866 26.808-67.001 51.807v0l-27.193 46.003-3.619 6.816c-24.763 51.212-5.353 112.777 43.912 140.671v0l4.493 2.757c13.161 8.925 21.052 23.639 21.052 39.375 0 17.111-9.317 32.922-25.616 42.176v0l-6.613 4.157c-47.551 32.398-62.080 95.3-32.623 145.371v0l27.703 44.599c30.81 52.39 99.088 70.464 151.602 40.958v0l5.685-2.969c5.795-2.606 12.090-3.989 18.151-4.053 26.727-0.003 48.501 21.024 48.906 47.978v0l0.363 8.277c2.188 25.627 13.539 49.711 32.094 67.978 20.935 20.609 49.388 32.195 79.066 32.195v0zM538.3 812.896h-52.708c-12.904 0-25.276-5.038-34.378-13.998-8.067-7.942-13.003-18.414-13.869-28.194v0l-0.573-13.009c-4.414-56.72-52.785-101.233-111.94-101.226-15.248 0.155-30.281 3.458-45.611 10.399v0l-8.208 4.241c-23.386 13.129-53.205 5.235-67.043-18.278v0l-27.703-44.6c-12.694-21.584-6.345-49.071 13.31-62.494v0l11.124-6.902c30.635-20.295 49.22-54.27 49.22-90.837 0-36.034-18.066-69.719-49.295-90.864v0l-6.648-4.095c-21.882-12.402-30.326-39.185-20.156-60.277v0l2.402-4.547 26.848-45.376c6.305-11.145 16.883-19.37 29.393-22.854 11.088-3.088 22.923-2.234 32.156 1.802v0l4.639 2.225c25.607 14.639 56.121 18.65 84.76 11.141s53.031-25.915 67.499-50.701c7.783-12.848 12.708-27.15 14.614-43.589v0l0.86-15.086c2.654-23.996 23.399-42.676 48.598-42.676v0h52.708c25.485 0 46.655 19.197 48.644 42.714v0l0.241 4.654c-0.143 29.167 11.619 57.18 32.67 77.805s49.643 32.149 80.105 31.998c14.946-0.392 29.656-3.673 44.692-10.303v0l13.482-6.746c21.16-9.1 46.259-2.46 58.98 15.422v0l3.092 4.736 27.494 44.889c6.498 10.928 8.282 23.943 4.956 36.164-2.948 10.831-9.707 20.282-17.903 25.935v0l-11.617 7.195c-22.213 14.709-38.358 36.833-45.313 62.384-7.65 28.106-3.548 58.041 11.282 82.977 8.118 13.886 19.275 25.826 33.82 35.725v0l6.858 4.232c21.847 12.52 30.285 39.3 20.188 60.471v0l-3.016 5.698-0.541 1.196-24.952 42.461c-11.801 20.067-36.359 28.738-57.197 21.887v0l-4.735-1.858-4.401-2.197c-25.523-14.731-55.979-18.91-84.651-11.616s-53.205 25.462-68.106 50.357c-7.783 12.848-12.708 27.15-14.614 43.589v0l-0.56 10.754c0.379 12.939-4.603 25.477-13.812 34.759s-21.861 14.51-35.085 14.51v0zM512.138 587.442c78.604 0 142.326-62.43 142.326-139.442s-63.721-139.442-142.326-139.442c-78.604 0-142.326 62.43-142.326 139.442s63.721 139.442 142.326 139.442zM512.138 525.672c-43.784 0-79.278-34.775-79.278-77.672s35.494-77.672 79.278-77.672c43.784 0 79.278 34.775 79.278 77.672s-35.494 77.672-79.278 77.672z" data-tags="Setting" glyph-name="settings_1_outline" unicode=""/><glyph d="M993.419 793.761v-68.987c0-11.383-9.313-20.696-20.696-20.696h-696.773v-13.797c0-22.938-18.454-41.392-41.392-41.392h-27.595c-22.938 0-41.392 18.454-41.392 41.392v13.797h-144.874c-11.383 0-20.696 9.313-20.696 20.696v68.987c0 11.383 9.313 20.696 20.696 20.696h144.874v13.797c0 22.938 18.454 41.392 41.392 41.392h27.595c22.938 0 41.392-18.454 41.392-41.392v-13.797h696.773c11.383 0 20.696-9.313 20.696-20.696zM972.723 538.507h-144.874v13.797c0 22.938-18.454 41.392-41.392 41.392h-27.595c-22.938 0-41.392-18.454-41.392-41.392v-13.797h-696.773c-11.383 0-20.696-9.313-20.696-20.696v-68.987c0-11.383 9.313-20.696 20.696-20.696h696.773v-13.797c0-22.938 18.454-41.392 41.392-41.392h27.595c22.938 0 41.392 18.454 41.392 41.392v13.797h144.874c11.383 0 20.696 9.313 20.696 20.696v68.987c0 11.383-9.313 20.696-20.696 20.696zM972.723 262.558h-476.013v13.797c0 22.938-18.454 41.392-41.392 41.392h-27.595c-22.938 0-41.392-18.454-41.392-41.392v-13.797h-365.633c-11.383 0-20.696-9.313-20.696-20.696v-68.987c0-11.383 9.313-20.696 20.696-20.696h365.633v-13.797c0-22.938 18.454-41.392 41.392-41.392h27.595c22.938 0 41.392 18.454 41.392 41.392v13.797h476.013c11.383 0 20.696 9.313 20.696 20.696v68.987c0 11.383-9.313 20.696-20.696 20.696z" data-tags="discy_demo__6_settings" glyph-name="discy_demo__6_settings" unicode=""/><glyph d="M312.497 139.001c71.144 0 118.715-26.573 139.716-41.573 7.715-4.284 29.572-17.143 34.286-17.571v648c-27.858 51.856-109.714 93.857-194.571 93.857-107.143 0-198.001-61.714-218.143-103.287v-605.142c0-28.286 16.715-39 36.857-39 16.285 0 27.001 5.572 37.285 14.142 25.287 22.715 84.859 50.573 164.571 50.573zM711.927 139.001c79.715 0 138.862-27.858 164.57-50.573 9.856-8.143 20.573-14.142 36.855-14.142 20.144 0 36.864 10.714 36.864 39v605.142c-20.144 41.573-110.574 103.287-217.717 103.287-84.857 0-166.715-42-194.571-93.857v-648.858c4.714 0.43 26.571 13.714 34.714 18.428 20.571 15 68.144 41.573 139.286 41.573z" data-tags="book_fill" glyph-name="news_1" unicode=""/></font>
</defs>
</svg>
