<?xml version="1.0" encoding="UTF-8"?>
<svg width="499px" height="138px" viewBox="0 0 499 138" version="1.1" xmlns="http://www.w3.org/2000/svg" xmlns:xlink="http://www.w3.org/1999/xlink">
    <title>Group 12</title>
    <defs>
        <linearGradient x1="50%" y1="0%" x2="50%" y2="100%" id="linearGradient-1">
            <stop stop-color="#eee" offset="0%"></stop>
            <stop stop-color="#fff" offset="100%"></stop>
        </linearGradient>
    </defs>
    <g id="Page-1" stroke="none" stroke-width="1" fill="none" fill-rule="evenodd">
        <g id="appbear-logo-2" transform="translate(-1.000000, -186.000000)">
            <g id="Group-12" transform="translate(1.000000, 186.000000)">
                <path d="M69,0 C107.107648,0 138,30.8923523 138,69 C138,107.107648 107.107648,138 69,138 C30.8923523,138 0,107.107648 0,69 C0,30.8923523 30.8923523,0 69,0 Z M60.2982,93.9122 C56.9402,93.9812 55.0962,96.0712 55.0192,99.3022 C54.8742,105.3822 54.9772,111.4672 54.9772,117.3802 C65.7422,123.2342 66.2822,124.1202 63.9772,132.7342 C71.1092,133.1902 77.7922,132.9262 84.6432,130.9552 C84.6432,120.1722 84.7192,109.6432 84.5982,99.1172 C84.5602,95.8222 82.4902,93.9502 79.1752,93.8982 C72.8842,93.8012 66.5882,93.7832 60.2982,93.9122 Z M20.9222,26.5962 C-4.1378,54.5792 2.4822,94.6152 23.6952,113.5092 C23.2602,109.5082 23.2282,106.2562 23.5782,102.9622 C24.4512,94.7562 27.5702,87.2982 31.0712,79.9802 C33.3742,75.1672 35.0282,70.3612 35.2352,64.8842 C35.6132,54.9082 37.9872,45.2612 41.9992,36.0822 C43.0192,33.7482 43.4872,31.6272 43.0302,28.9852 C42.4332,25.5402 41.8292,21.7412 45.1832,18.8632 C50.6202,19.4432 53.1172,23.9652 56.7452,27.2272 C65.6252,25.6592 74.5572,25.8842 83.3222,27.1742 C86.8332,23.5632 89.5292,19.3682 94.8402,18.8062 C97.5832,22.0222 97.4912,25.4892 96.8072,28.8812 C96.2862,31.4652 96.6852,33.6692 97.7222,36.0332 C101.9522,45.6732 104.2922,55.7892 104.6722,66.2982 C104.8132,70.1752 105.6492,73.7222 107.3512,77.2362 C112.4182,87.6962 116.8702,98.3692 116.5252,110.3382 C116.5212,110.4752 117.0082,110.6282 117.2662,110.7732 C137.8722,89.3872 141.1222,48.6942 113.1132,22.4052 C86.4382,-2.6318 45.3742,-0.7058 20.9222,26.5962 Z M62,98 C63.1045695,98 64,98.8954305 64,100 C64,101.104569 63.1045695,102 62,102 C60.8954305,102 60,101.104569 60,100 C60,98.8954305 60.8954305,98 62,98 Z M64.2772,48.9962 C61.1122,52.4052 59.5372,56.4852 59.5421881,61.1532 C59.5502,68.3312 63.7372,72.9372 70.1632,72.8082 C76.2862,72.6852 80.2782,68.0612 80.2502,59.7772 C80.2922,56.6312 78.7702,52.6892 75.8892,49.2972 C72.4902,45.2932 67.8322,45.1672 64.2772,48.9962 Z M76.3461,63.256 C75.4871,66.555 72.8471,68.133 70.0101,69.673 C66.9161,68.432 64.7761,66.377 63.2331,63.201 C68.4121,59.717 72.0781,59.804 76.3461,63.256 Z" id="Combined-Shape" fill="url(#linearGradient-1)"></path>
                <path d="M382.7326,70.2957 C386.5036,67.7147 390.9266,66.6857 391.3776,61.7087 C386.4316,59.0627 384.1826,61.1837 382.7326,70.2957 L382.7326,70.2957 Z M433.9996,58.7797 C423.0226,61.3737 416.3366,69.4057 416.6316,79.1307 C416.7046,81.5117 416.9916,83.9077 419.3866,85.0647 C421.8106,86.2347 424.3166,85.6687 426.4656,84.2137 C429.9106,81.8817 432.3236,78.6217 432.4966,74.4557 C432.7096,69.3607 433.3416,64.3227 433.9996,58.7797 L433.9996,58.7797 Z M498.3046,79.3417 C496.8156,82.2597 495.7776,85.4037 493.5326,87.9347 C491.7546,89.9387 489.8696,91.7707 487.4816,93.0107 C479.2556,97.2827 472.7996,93.6297 472.3246,84.4087 C472.1706,81.4347 472.3096,78.4587 473.1116,75.5587 C473.8996,72.7087 474.7166,69.8677 475.5826,66.8077 L468.9736,66.8077 C466.7356,72.1137 465.9736,77.5537 466.3626,83.2047 C466.4986,85.1827 466.5966,87.1667 466.5816,89.1477 C466.5486,93.0747 464.3006,95.2337 460.0876,95.7817 C456.1286,96.2967 455.3446,93.6987 454.7686,90.7587 C454.6196,89.9997 454.7806,89.1107 453.9656,88.5467 C451.5876,90.0027 449.3016,91.6697 446.7956,92.8887 C439.6086,96.3827 436.6456,95.2137 433.0646,87.3997 C429.4026,91.7327 425.1606,94.7857 419.3496,95.1217 C413.4016,95.4667 408.5626,93.6917 404.9916,88.2407 C400.1186,92.1367 394.6366,94.1747 388.6076,94.8017 C385.1036,95.1657 381.6356,95.1587 378.2456,94.1257 C373.1966,92.5877 370.0546,89.2127 369.0226,84.0667 C367.0036,74.0017 372.9696,60.6967 381.7966,55.2547 C385.3016,53.0937 389.0896,52.1787 393.1846,52.3487 C397.1356,52.5127 400.3686,53.8757 401.8096,57.8247 C403.2616,61.8027 402.1816,65.3117 399.2726,68.2667 C396.7726,70.8077 393.5136,72.1037 390.2836,73.4267 C387.5416,74.5497 384.6036,75.2317 382.1426,76.8797 C381.7506,81.7767 382.7856,83.4067 387.1486,84.3627 C393.3686,85.7267 398.5206,83.4137 403.1126,79.6307 C409.1876,57.6707 419.0436,49.6987 435.4966,53.3337 C440.3396,50.0587 443.7306,51.4467 447.5086,58.6477 C442.3936,66.3937 442.1376,75.1067 444.2356,85.2347 C449.5326,81.3667 454.9756,79.1867 455.5806,72.3307 C455.9006,68.6997 457.6426,65.4107 458.9206,61.9227 C458.1136,60.8547 457.2506,59.8547 456.5476,58.7527 C454.6106,55.7117 454.8186,52.4717 456.9896,50.6447 C459.3416,48.6657 463.5656,49.0407 466.0926,51.3827 C468.0946,53.2377 468.7646,55.8847 470.0996,58.0107 C475.2076,60.1697 478.9496,55.8097 483.5026,55.3837 C487.1696,58.5187 488.6576,62.1117 487.1406,66.8097 C485.8736,70.7337 484.8036,74.7267 483.7576,78.7177 C483.3096,80.4267 482.5776,82.1917 483.6046,84.1417 C486.3096,84.4657 487.6376,82.2907 489.2836,80.8497 C491.1476,79.2147 492.8556,77.3957 494.5566,75.5877 C495.7906,74.2767 496.9656,73.9077 498.3046,75.3747 L498.3046,79.3417 Z" id="Fill-4" fill="#fff"></path>
                <path d="M315.6457,81.8524 C315.5587,81.7504 315.4717,81.6484 315.3847,81.5454 C315.2847,81.6354 315.1117,81.7214 315.1057,81.8184 C315.0997,81.9144 315.2597,82.0214 315.3467,82.1234 C315.4467,82.0334 315.5457,81.9434 315.6457,81.8524 M197.7397,58.6464 C186.2667,61.8404 179.9277,69.6514 180.3527,79.3404 C180.6047,85.0914 184.3967,87.3404 189.4807,84.5834 C193.3517,82.4864 195.8727,79.0394 196.1537,74.7434 C196.4947,69.5184 197.0367,64.3134 197.7397,58.6464 M310.6427,88.1104 C303.2087,95.0264 294.3037,96.2394 284.9447,95.2094 C278.7257,94.5254 276.8057,91.5784 278.1487,85.8734 C288.2437,82.9194 292.4197,77.6324 292.3277,67.9264 C292.2777,62.7384 288.5637,60.4214 283.9437,62.8054 C281.0637,64.2914 279.1677,66.7474 277.4977,69.5074 C273.2507,76.5244 272.3727,84.4304 271.1107,92.2434 C270.0577,98.7644 269.1277,105.3054 268.0867,111.8294 C267.6277,114.7064 267.7217,118.1694 263.5227,118.3294 C260.9467,118.4264 257.3117,114.2634 257.0767,111.0174 C256.8027,107.2224 257.1457,103.4324 257.6317,99.6514 C257.8977,97.5784 258.6477,95.4704 257.6847,93.1074 C251.2857,95.2774 244.7347,96.2064 238.0897,95.1124 C232.2637,94.1534 230.5117,91.1424 232.1627,85.7474 C241.8707,83.2264 246.4697,77.3104 246.1927,67.6974 C246.0517,62.8024 242.4817,60.5474 238.0547,62.6714 C234.9537,64.1594 232.9837,66.7674 231.2607,69.6894 C226.2107,78.2494 225.8767,87.9624 224.2337,97.3524 C223.3807,102.2324 222.8347,107.1644 221.9667,112.0404 C221.4927,114.7084 221.5117,118.0014 217.6727,118.3674 C215.1157,118.6104 211.2977,114.5844 211.0197,111.3154 C210.6407,106.8564 211.0927,102.4074 211.6697,97.9754 C211.8987,96.2204 212.5947,94.4614 211.8487,92.6614 C201.5647,95.9794 200.6217,95.6654 196.6457,87.2284 C192.6187,92.9084 187.1847,95.4734 180.3927,95.1264 C172.6397,94.7324 167.4017,89.4514 167.379519,81.7114 C167.3527,72.3394 170.3517,64.2214 177.7027,57.9844 C183.8707,52.7494 190.8817,51.4264 198.8347,53.2584 C204.4287,50.1104 207.9457,51.5944 211.1427,58.9714 C205.9497,66.6354 205.9757,75.2294 207.7497,84.4894 C211.8037,83.2674 214.4307,81.5974 215.3877,77.7184 C217.2467,70.1784 219.6947,62.8134 222.7167,55.6464 C223.6067,53.5354 224.1647,50.9684 226.9897,50.7094 C229.9987,50.4334 231.1977,52.8754 232.5017,54.9944 C232.8457,55.5514 233.1857,56.1104 233.7267,56.9934 C237.6417,53.9864 241.8397,52.0664 246.9067,52.4664 C254.1227,53.0394 258.6057,57.2064 259.0647,64.3974 C259.6157,73.0034 255.8007,79.6934 249.4487,85.1704 C248.5867,85.9144 247.6327,86.5514 246.7397,87.2594 C246.6337,87.3424 246.6427,87.5674 246.5317,87.9634 C251.9677,87.5734 256.2927,85.0614 260.5297,81.6024 C262.6167,73.1494 265.1017,64.6004 268.5547,56.3724 C269.5427,54.0154 269.9597,50.8394 273.3207,50.7054 C276.4737,50.5794 277.6267,53.3494 279.0057,55.5984 C279.2457,55.9914 279.6257,56.2984 280.2137,56.9434 C283.9817,53.5504 288.3777,52.0704 293.4247,52.5064 C300.2077,53.0914 304.4667,57.0794 305.0827,63.8134 C305.9087,72.8354 301.9987,79.7884 295.2377,85.4144 C294.7357,85.8324 294.0917,86.0794 293.5677,86.4754 C293.1947,86.7574 292.9117,87.1594 292.2207,87.9024 C297.6597,87.7674 301.5027,85.1454 305.5037,82.6574 C309.5477,80.1414 311.2297,74.8984 316.2977,73.6724 C321.4777,50.1914 325.0987,42.7724 332.2667,41.6514 C333.4697,45.3364 332.8207,49.0384 332.2367,52.7264 C330.7147,62.3324 327.5717,71.6874 327.7287,81.5524 C327.7517,83.0224 327.3137,84.5104 327.8767,85.9454 C334.9277,89.3014 343.4547,88.1214 347.5537,83.2344 C351.2967,78.7744 350.7987,69.9034 346.4167,63.7464 C344.3717,63.0234 342.1917,63.8194 340.0667,63.4624 C337.3897,63.0144 334.2687,62.6704 334.3747,59.2144 C334.4687,56.1194 337.3617,55.5984 339.9337,55.4424 C342.0677,55.3124 344.2137,55.4154 346.3777,55.4154 C349.4157,51.1234 349.9497,46.6474 347.8817,42.1634 C345.8917,37.8424 341.6217,37.1074 337.3767,36.7894 C331.2437,36.3294 325.5497,37.8634 320.0997,40.6064 C317.9607,41.6834 315.8957,43.3924 312.9697,42.3714 C312.3217,40.0504 314.0087,38.7104 315.2817,37.3684 C319.8927,32.5054 325.6617,29.7854 332.2517,28.7334 C336.7237,28.0194 341.2237,28.1414 345.6567,28.8564 C353.2357,30.0774 359.9617,32.9134 362.2457,41.0394 C364.4097,48.7444 361.7707,54.9804 354.8767,59.2334 C355.5317,60.9924 357.0857,61.4554 358.2147,62.2874 C366.5477,68.4284 368.1737,84.7504 356.1067,91.8844 C348.4437,96.4144 340.0557,97.0914 331.5197,95.8714 C324.2567,94.8314 317.2807,92.6584 310.6427,88.1104" id="Fill-6" fill="#fff"></path>
            </g>
        </g>
    </g>
</svg>